<svg width="300" height="300" viewBox="0 0 300 300" fill="none" xmlns="http://www.w3.org/2000/svg">
<path d="M178.125 37.5C178.125 27.1875 186.562 18.75 196.875 18.75C207.188 18.75 215.625 27.1875 215.625 37.5C215.625 45 224.719 48.75 230.062 43.5L230.531 43.0313C237.844 35.7188 249.75 35.7188 257.062 43.0313C264.375 50.3438 264.375 62.25 257.062 69.5625L256.594 70.0312C251.25 75.2812 255 84.375 262.5 84.375C272.812 84.375 281.25 92.8125 281.25 103.125C281.25 113.438 272.812 121.875 262.5 121.875H178.125V37.5Z" fill="#5A3B2D"/>
<path d="M121.874 229.576C130.908 232.763 140.419 234.386 149.999 234.376C157.724 234.376 165.196 233.344 172.312 231.394C163.947 233.666 155.284 234.64 146.624 234.282C152.091 223.492 154.174 211.304 152.602 199.311C151.029 187.318 145.875 176.079 137.812 167.063C128.985 157.152 117.13 150.437 104.092 147.962C91.0534 145.486 77.5624 147.39 65.7178 153.376C65.6639 152.251 65.6327 151.126 65.624 150.001C65.624 159.863 67.3115 169.332 70.424 178.126L72.8615 180.094H89.0428C107.137 180.094 119.68 192.694 119.68 210.788V227.251L121.874 229.576Z" fill="#FFFAF0"/>
<path d="M68.8117 126.936C76.6249 124.574 84.743 123.374 92.9055 123.374C116.718 123.374 139.499 133.593 155.343 151.405C162.783 159.76 168.488 169.512 172.124 180.093C175.617 190.305 177.082 201.1 176.437 211.874C176.062 218.436 174.937 224.905 173.062 231.186C180.821 228.984 188.222 225.675 195.037 221.361C195.243 220.911 196.255 220.218 196.443 219.768C209.924 189.289 205.79 151.818 182.249 125.324C164.999 105.918 139.734 95.4738 115.64 95.4738C103.377 95.4738 92.1461 98.1457 80.7367 103.33C80.3617 103.499 79.0211 104.924 78.6554 105.093C82.7804 98.5301 87.9367 92.4363 93.9367 86.9988C100.638 80.9972 108.269 76.1214 116.53 72.5613C117.224 72.5613 117.562 73.1238 118.246 73.1426C133.516 73.4637 148.553 76.942 162.413 83.3587C176.272 89.7754 188.654 98.9915 198.777 110.427C208.72 121.59 216.335 134.626 221.174 148.771C224.802 159.477 226.33 170.239 226.621 181.546C226.64 182.183 227.521 182.708 227.53 183.346C232.029 172.754 234.313 161.354 234.243 149.847C234.173 138.339 231.749 126.968 227.122 116.432C222.494 105.896 215.761 96.418 207.335 88.5806C198.909 80.7433 188.968 74.7123 178.125 70.8587C167.282 67.005 155.766 65.4101 144.283 66.1719C132.801 66.9338 121.596 70.0364 111.357 75.2889C101.119 80.5414 92.0624 87.8327 84.7457 96.7146C77.4291 105.597 72.0066 115.881 68.8117 126.936Z" fill="#FFFAF0"/>
<path d="M181.031 126.189C172.837 116.952 162.775 109.559 151.511 104.501C140.246 99.442 128.036 96.8329 115.688 96.8457C103.031 96.8457 90.3752 99.5645 78.6565 105.096C82.7815 98.5332 87.9377 92.4395 93.9377 87.002C100.639 81.0003 108.27 76.1246 116.531 72.5645C131.813 72.6582 146.625 75.8457 160.688 81.9395C175.5 88.4082 188.438 97.877 199.219 109.971C209.25 121.221 216.75 134.158 221.625 148.314C225.469 159.658 227.438 171.471 227.531 183.471C222.844 194.439 215.719 204.564 206.156 213.002C202.594 216.189 198.844 219.002 195 221.439C209.25 190.689 204.938 153.096 181.031 126.189ZM121.875 262.502C121.875 272.814 113.438 281.252 103.125 281.252C92.8127 281.252 84.3752 272.814 84.3752 262.502C84.3752 255.002 75.2815 251.252 69.9377 256.502L69.469 256.971C62.1565 264.283 50.2502 264.283 42.9377 256.971C35.6252 249.658 35.6252 237.752 42.9377 230.439L43.4065 229.971C48.7502 224.721 45.0002 215.627 37.5002 215.627C27.1877 215.627 18.7502 207.189 18.7502 196.877C18.7502 186.564 27.1877 178.127 37.5002 178.127H89.0627C107.156 178.127 121.875 192.846 121.875 210.939V262.502Z" fill="#5A3B2D"/>
<path d="M137.531 167.202C154.499 186.233 157.499 212.812 146.624 234.28C155.437 234.655 164.343 233.624 173.062 231.187C174.937 224.905 176.718 218.352 177.093 211.79C177.749 200.915 175.931 189.552 172.462 179.333C168.806 168.74 163.199 159.646 155.699 151.208C147.799 142.355 138.127 135.259 127.31 130.382C116.493 125.504 104.771 122.954 92.9056 122.896C84.6556 122.896 76.5931 124.593 68.8118 126.937C66.3743 135.562 65.3431 144.468 65.7181 153.374C74.2493 149.062 83.6243 147.233 92.9056 147.233C109.406 147.233 125.624 153.89 137.531 167.202Z" fill="#5A3B2D"/>
</svg>
