<svg width="183" height="41" viewBox="0 0 183 41" fill="none" xmlns="http://www.w3.org/2000/svg">
<g clip-path="url(#clip0_45_161)">
<path fill-rule="evenodd" clip-rule="evenodd" d="M21.6066 21.1328C22.7638 21.1328 23.3319 21.6508 24.7493 21.6468C25.6049 21.6445 25.6737 21.5634 26.3339 21.3391C26.7746 21.1887 27.3607 20.9132 27.7623 20.8802C27.127 21.4359 25.5565 21.6413 25.2424 22.2647C24.8681 23.0085 25.1236 24.8787 25.1236 25.9421H24.9978C24.9978 25.2903 24.8923 22.6071 24.6165 22.2765C24.3391 21.9451 23.0076 21.6028 22.431 21.4414C22.2755 21.3981 22.1841 21.3863 22.0333 21.3359L21.6058 21.1336L21.6066 21.1328ZM28.1389 20.7535C27.9998 20.8833 28.3593 20.8802 27.7623 20.8802C27.9006 20.7503 27.5427 20.7535 28.1389 20.7535ZM28.5163 20.5L28.5531 20.5378C28.5507 20.5354 28.5031 20.5126 28.5163 20.5ZM17.2122 23.0313C17.5771 23.7295 18.2826 24.0758 18.3405 25.0424C19.1015 24.9519 21.0651 25.3187 21.5801 25.6886C21.4027 26.2506 21.13 26.8551 20.8768 27.4785C20.4736 28.4718 20.4682 28.2514 19.8181 28.8646L19.9743 29.074L23.8132 30.046C25.8386 30.4097 26.1042 30.1547 27.6732 29.521L32.6608 27.3321C33.2616 27.0629 33.743 26.7426 34.2954 26.4482C34.1696 26.1829 34.0094 25.2888 33.9188 24.9299L33.139 21.6665C32.5381 19.0974 32.8217 19.1722 30.4166 18.4614C28.8047 17.9852 25.6221 17.1273 23.8664 17.5877C22.9498 17.8278 18.6686 19.3516 18.1232 19.9018C17.7349 20.293 17.3739 22.3151 17.2129 23.0321L17.2122 23.0313Z" fill="#241C16"/>
<path fill-rule="evenodd" clip-rule="evenodd" d="M3.39108 20.627C3.39108 18.4483 3.98102 15.4077 4.89679 13.5383C5.13511 13.0527 5.34765 12.6253 5.60941 12.1042C8.20983 6.91402 14.4538 3.29018 20.6017 3.29018C25.5837 3.29018 29.9391 5.65779 32.4419 8.19385C33.2045 8.96679 33.7171 9.52091 34.368 10.43C39.275 17.281 38.5757 26.6263 32.4411 32.8067C32.0676 33.1829 31.8066 33.4773 31.4066 33.7882C27.8701 36.5431 24.9188 37.7103 19.9735 37.7103C13.6045 37.7103 7.16904 33.1254 4.91633 27.5693C4.48501 26.5067 4.15917 25.692 3.86772 24.45C3.65909 23.5645 3.39108 21.7274 3.39108 20.627ZM2.38623 19.488C2.38623 23.0332 2.59564 25.3732 4.18652 28.5571C6.28061 32.7492 9.11076 35.3026 13.1474 37.2459C17.8153 39.4939 23.2123 39.2169 27.8357 37.2774C34.0656 34.6642 38.6913 27.7975 38.6913 20.7529C38.6913 17.747 38.0678 15.0936 37.0176 12.822C35.1517 8.78812 31.9981 5.73178 28.0576 3.87815C26.9222 3.34449 26.1409 3.07451 24.7985 2.73212C18.9374 1.23347 12.3058 2.97534 8.07153 7.24381C6.365 8.96443 5.42188 10.0042 4.22637 12.3553C3.39499 13.9909 2.38701 17.0913 2.38701 19.4865L2.38623 19.488Z" fill="#241C16"/>
<path fill-rule="evenodd" clip-rule="evenodd" d="M14.0695 20.1206L14.107 20.1584C14.1039 20.156 14.0562 20.1332 14.0695 20.1206ZM14.3211 19.9939L14.3586 20.0309C14.3555 20.0285 14.3086 20.0057 14.3211 19.9939ZM14.5719 19.8671L14.6094 19.9049C14.6071 19.9026 14.5594 19.8797 14.5719 19.8671ZM14.8227 19.7404L14.861 19.7782C14.8579 19.7758 14.811 19.753 14.8227 19.7404ZM13.0639 20.6259L12.1371 20.9581C11.68 21.0706 11.4863 21.1092 10.987 21.1911C10.104 21.3367 9.1601 21.2296 8.52249 21.025C7.29964 20.6338 6.28072 19.4303 6.28072 17.8419H6.0299C5.77674 18.9344 5.09694 19.6342 5.46887 21.6972C6.08147 25.1006 9.21089 28.0916 13.0006 28.0916C13.1725 27.6556 13.1115 27.6563 13.4186 27.4084C13.1826 26.2868 13.278 26.0821 13.2819 24.9054L15.1751 24.7952C15.4705 24.0656 16.3613 23.358 16.852 23.0368L16.8098 22.903C17.3544 21.1958 16.784 19.8797 18.446 19.2131C18.9328 19.0179 19.1508 18.8376 19.5962 18.6007C19.5962 17.4145 18.5757 16.0276 17.8404 15.4342C17.0731 14.8155 15.7401 13.6915 14.5711 13.6655C15.1204 14.492 16.3175 15.3303 15.004 17.265C14.6641 17.7656 14.1633 18.1749 13.6874 18.47C11.6496 19.7357 8.28886 19.3099 9.21167 17.0021C9.45311 16.3999 9.86646 15.9182 10.4205 15.6845C11.2229 15.3476 11.7371 15.4971 12.5614 15.69C12.7451 16.4857 12.699 16.6321 12.1848 17.0824C11.5535 16.9344 11.4988 16.6132 10.8033 16.4495C9.27418 17.4814 10.9409 19.3429 13.1873 17.9663C16.1003 16.1803 14.3602 12.758 10.2822 14.1535C6.35574 15.4971 5.52123 19.8459 9.34919 20.8258C11.3761 21.3445 11.8941 20.6527 13.0646 20.6259H13.0639Z" fill="#241C16"/>
<path fill-rule="evenodd" clip-rule="evenodd" d="M-0.000146231 20.5002C-0.000146231 25.9477 2.21506 31.1466 5.8719 34.831C9.69518 38.6823 14.4249 40.7265 19.2272 40.9996H21.4768C26.3627 40.717 31.1885 38.6076 35.0813 34.7059L36.6269 32.8467C39.2758 29.2866 37.7607 29.8998 35.2603 32.8625C31.98 36.7492 26.8269 39.8614 21.3541 39.8614C17.6168 39.8614 15.2789 39.6568 11.9323 37.9637C0.998455 32.4327 -2.29974 18.7213 5.05927 8.76679C7.23228 5.82695 10.4383 3.44831 13.8935 2.2283C15.1211 1.79539 16.5604 1.43332 17.9723 1.27511C20.0437 1.04292 22.4848 1.47819 22.4848 0.632833C22.4848 0.111769 21.7948 0.0141679 21.1877 0H20.6001C14.2123 0 9.27011 2.74307 6.05943 5.97886C2.40415 9.6633 -0.00170898 14.8236 -0.00170898 20.5002H-0.000146231Z" fill="#241C16"/>
<path fill-rule="evenodd" clip-rule="evenodd" d="M24.9986 16.3245H25.376V16.5772C25.0087 16.489 25.1955 16.5937 24.9986 16.3245ZM22.7381 15.9443H23.2405V16.3245H22.7381V15.9443ZM23.3663 15.565H23.9945C24.0609 15.853 24.0914 15.8562 24.1203 16.1978C23.7304 16.1065 23.7562 16.0364 23.3663 15.9443V15.565ZM27.5115 15.6909C27.6842 15.1667 27.6756 15.498 27.8889 15.8176C27.774 15.8153 27.667 15.8373 27.5599 15.7916C27.0888 15.5925 27.5982 15.7893 27.5115 15.6909ZM21.6074 15.6909C21.6074 15.3052 21.802 15.6138 21.7926 15.7893C21.766 16.2238 21.6074 15.7444 21.6074 15.6909ZM25.5018 15.3115C26.198 15.3697 25.9675 15.5461 26.5066 15.6909V16.0711C25.6588 16.0711 25.601 16.0907 25.5018 15.3115ZM28.5171 15.1848C28.8953 15.2871 28.793 15.1832 28.8937 15.565H28.5171V15.1848ZM19.7235 15.3115C20.2673 14.9447 19.8142 15.1848 20.4775 15.1848C20.4854 15.5705 20.5338 15.6468 20.6026 15.9443C20.0595 15.8987 19.9235 15.6925 19.7235 15.3115ZM26.13 14.5519C26.502 14.3717 26.4801 14.4252 27.0091 14.4252C26.7512 14.9164 27.0599 14.7369 26.616 14.7991C26.1417 14.866 26.3004 14.7857 26.13 14.5519ZM28.7679 14.0458C29.3071 14.3339 28.9961 14.012 29.1446 14.4252C28.4835 14.0726 29.0406 14.4032 28.7679 14.0458ZM31.7833 14.0458C31.9169 13.912 32.2599 14.2465 31.9231 14.112C31.92 14.1104 31.5731 14.2584 31.7833 14.0458ZM30.1502 13.7932C30.4284 13.9876 30.3065 13.8136 30.4018 14.1726H30.1502V13.7932ZM25.3768 13.5397C25.6456 13.9443 25.5831 13.6287 25.6276 14.1726H24.9994C25.1056 13.7121 25.0689 13.7672 25.3768 13.5397ZM22.9897 13.7932C23.11 13.3367 23.0014 13.4547 23.4921 13.4138C23.5593 13.7027 23.5898 13.705 23.6179 14.0466C22.9725 14.0325 23.2569 14.1608 22.9897 13.7932ZM22.3614 13.7932C22.3614 13.5791 22.7295 13.6153 22.5201 13.7932L22.4732 13.8003C22.3466 13.8026 22.3614 14.0813 22.3614 13.7932ZM30.6518 13.4138C31.0144 13.6586 31.166 13.9341 31.2809 14.426C30.8503 14.2694 31.2215 14.6228 30.8909 14.0592C30.7784 13.8664 30.7362 13.6027 30.6518 13.4138ZM27.8881 13.5405C28.3976 13.4209 28.582 13.1958 28.6421 13.9199C28.0467 13.9065 28.1444 13.9254 27.8881 13.5405ZM26.5066 13.4138C26.8739 13.5019 26.6879 13.3973 26.884 13.6665H26.5066V13.4138ZM29.0196 13.4138C29.0196 13.0706 29.4681 13.4138 29.1313 13.4209C29.0047 13.4232 29.0196 13.7019 29.0196 13.4138ZM23.8687 13.0344C24.4626 13.0478 24.3618 12.9061 24.4969 13.4138C23.6749 13.3949 24.1 13.4768 23.8687 13.0344ZM22.2356 12.9077C22.2677 12.6471 22.899 12.9384 22.3528 12.9195C22.3052 12.9179 22.2005 13.191 22.2356 12.9077ZM27.7631 12.5275C27.7553 12.8668 27.81 13.1651 27.5365 12.9218C27.2271 12.6464 27.5021 12.7109 27.7631 12.5275ZM28.7679 12.4016C29.261 12.4126 29.0625 12.3669 29.3962 12.5275C29.3094 12.7676 29.3087 12.9045 29.0235 12.8644C28.6242 12.8077 28.8148 12.7692 28.7679 12.4016ZM25.5018 12.5275C25.7979 12.4582 25.8729 12.4102 26.2558 12.4016C26.1081 12.6054 26.2253 12.5614 25.9644 12.6235C25.4158 12.7526 25.5432 12.5543 25.5018 12.5275ZM24.9994 11.8947V12.4008H24.1203C24.2727 11.7428 24.4196 11.7585 24.9994 11.8947ZM27.2607 11.642C27.6326 11.4618 27.6115 11.5153 28.1405 11.5153C28.1108 11.8726 28.1428 12.0214 27.7631 12.0214C27.4271 12.0214 27.3919 11.8388 27.2607 11.642ZM26.005 11.5153H26.3816V11.768C26.0144 11.6798 26.2003 11.7845 26.005 11.5153ZM20.7284 13.6665C21.4261 13.8546 20.8635 14.0458 22.1106 14.0458V14.6787C22.6537 14.7952 22.2552 14.7298 22.8646 14.6787C22.8326 16.134 22.892 14.9841 23.9945 17.0833C24.479 17.0423 24.4001 16.9566 24.9994 16.9566C24.7556 17.3233 24.74 17.347 24.2453 17.4627V17.842C25.4791 18.1317 26.4832 16.8298 28.3905 16.8298C31.0003 16.8298 31.4215 17.003 33.918 17.5894C33.918 15.8869 33.4101 15.0573 32.5889 13.8664C31.9482 12.9392 31.9661 13.0714 31.3785 12.5543C27.5404 9.18388 21.2738 11.6066 20.7284 13.6665Z" fill="#241C16"/>
<path fill-rule="evenodd" clip-rule="evenodd" d="M16.5175 26.7618C16.7628 27.2734 16.9199 27.042 17.0339 27.6323C17.1113 28.0353 16.9613 28.3415 16.8745 28.6461C18.0935 28.7296 18.4881 28.9169 19.818 28.8642C20.4689 28.251 20.4736 28.4714 20.8768 27.4781C21.1299 26.8547 21.4026 26.2502 21.58 25.6882C21.0651 25.3175 19.1015 24.9507 18.3404 25.042C17.3004 25.2773 17.1183 26.0266 16.5175 26.7618Z" fill="#241C16" stroke="#D2E5EB" stroke-width="0.28843" stroke-miterlimit="22.9256"/>
<path fill-rule="evenodd" clip-rule="evenodd" d="M16.1409 28.9849C16.3277 29.8114 16.5089 30.3545 16.7715 31.129C17.338 31.6981 17.4146 31.8201 18.3491 32.0066C19.0265 32.1412 19.7337 32.3947 20.4768 32.3947L19.9736 29.0739L19.8173 28.8645C18.4874 28.9172 18.0936 28.7299 16.8738 28.6465C16.666 28.7748 16.4683 28.8818 16.1401 28.9849H16.1409Z" fill="#241C16" stroke="#D2E5EB" stroke-width="0.28843" stroke-miterlimit="22.9256"/>
<path fill-rule="evenodd" clip-rule="evenodd" d="M12.9997 28.0924C12.7958 28.3632 12.5113 29.033 12.4355 29.3573C13.9311 30.1546 13.0466 30.2435 14.6969 30.2435C14.6062 30.6182 14.6601 30.6631 14.8609 31.0865C15.0391 31.4644 15.1016 31.5879 15.2001 32.0145C15.797 31.9642 16.2713 31.3825 16.7714 31.129C16.5089 30.3545 16.3276 29.8114 16.1408 28.985C15.4814 28.9732 15.908 29.0164 15.7572 28.8425C15.4384 28.6929 15.3516 28.5489 15.2493 28.1656C14.9078 28.0869 14.6406 27.9885 14.3046 27.8586L13.5099 27.4659C13.4943 27.421 13.4498 27.4265 13.4185 27.4092C13.1114 27.6571 13.1724 27.6563 13.0005 28.0924H12.9997Z" fill="#241C16" stroke="#D2E5EB" stroke-width="0.28843" stroke-miterlimit="22.9256"/>
<path fill-rule="evenodd" clip-rule="evenodd" d="M13.4185 27.4096C13.4498 27.4269 13.4943 27.4214 13.5099 27.4663L14.3046 27.859C14.6406 27.9889 14.9078 28.0873 15.2493 28.166C15.0844 27.3765 15.4181 27.0152 16.0283 26.8279C15.8291 25.8543 15.7478 25.2742 15.1758 24.7964L13.2825 24.9066C13.2786 26.0841 13.1833 26.288 13.4193 27.4096H13.4185Z" fill="#241C16" stroke="#D2E5EB" stroke-width="0.28843" stroke-miterlimit="22.9256"/>
<path fill-rule="evenodd" clip-rule="evenodd" d="M16.8106 22.9047L16.8528 23.0385C16.9481 23.769 16.3941 25.9303 16.2667 26.8269L16.5183 26.7623C17.1192 26.0264 17.3005 25.2778 18.3413 25.0425C18.2835 24.0759 17.5779 23.7304 17.213 23.0314C16.995 22.8024 17.12 22.7961 16.8113 22.9047H16.8106Z" fill="#241C16" stroke="#D2E5EB" stroke-width="0.28843" stroke-miterlimit="22.9256"/>
<path fill-rule="evenodd" clip-rule="evenodd" d="M15.1751 24.7963C15.7471 25.2741 15.8283 25.8542 16.0276 26.8278L16.2401 26.827L16.2651 26.8255C16.3925 25.9297 16.9473 23.7683 16.8512 23.0371C16.3597 23.3582 15.4697 24.0659 15.1743 24.7955L15.1751 24.7963Z" fill="#241C16" stroke="#D2E5EB" stroke-width="0.28843" stroke-miterlimit="22.9256"/>
<path fill-rule="evenodd" clip-rule="evenodd" d="M15.7572 28.8425C15.908 29.0173 15.4814 28.9732 16.1409 28.985C16.469 28.8819 16.6667 28.7741 16.8746 28.6465C16.9613 28.3411 17.1113 28.035 17.034 27.6327C16.9207 27.0424 16.7628 27.2738 16.5175 26.7622L16.2659 26.8267L16.2409 26.8283C16.1706 27.2353 16.0377 27.4958 15.9674 27.8649C15.8486 28.486 16.0987 28.4191 15.7572 28.8441V28.8425Z" fill="#241C16" stroke="#D2E5EB" stroke-width="0.28843" stroke-miterlimit="22.9256"/>
<path fill-rule="evenodd" clip-rule="evenodd" d="M15.2494 28.166C15.3517 28.5493 15.4392 28.6934 15.7573 28.8429C16.0987 28.4179 15.8487 28.4848 15.9674 27.8638C16.0378 27.4946 16.1706 27.2341 16.2409 26.8271L16.0284 26.8279C15.4181 27.0153 15.0845 27.3765 15.2494 28.166Z" fill="#241C16" stroke="#D2E5EB" stroke-width="0.28843" stroke-miterlimit="22.9256"/>
<path fill-rule="evenodd" clip-rule="evenodd" d="M60.8942 25.8147C57.2679 25.8147 55.2207 25.466 52.446 22.6828C48.3602 18.5844 48.4258 11.2548 52.6328 7.36889C56.9139 3.41525 63.2759 3.43887 67.1445 7.37046C67.5946 7.82856 67.9665 8.14419 68.3619 8.6747C70.6872 11.7956 71.1522 16.3151 69.4792 19.6564C68.844 20.926 68.3658 21.5801 67.5164 22.6143C66.2951 24.0996 63.0766 25.8147 60.8942 25.8147ZM45.1909 14.6787C45.1909 19.4809 46.792 22.9504 49.4307 25.5928C53.3641 29.533 58.2548 31.0506 63.7103 29.6629C65.7435 29.1465 66.9757 28.4515 68.5939 27.2425C69.0221 26.9222 69.1737 26.7278 69.5441 26.4279C72.7345 23.8407 74.7129 19.3022 74.7129 15.0573C74.7129 11.0124 73.29 8.04816 70.856 5.14925C69.7832 3.87177 70.4122 4.65573 69.4667 3.76473C68.5049 2.85798 67.4047 2.07481 66.1693 1.51911C65.4208 1.18223 64.3651 0.790253 63.4587 0.580096C58.472 -0.57695 53.2829 0.765853 49.6831 4.39677C47.4069 6.69276 45.1917 10.1537 45.1917 14.678L45.1909 14.6787Z" fill="#241C16"/>
<path fill-rule="evenodd" clip-rule="evenodd" d="M131.7 25.4801C126.352 22.7307 127.893 14.1725 134.634 14.1725C136.417 14.1725 137.646 14.9848 138.561 15.912C140.913 18.2969 140.953 21.8861 138.876 24.1404C137.183 26.0657 134.206 26.6599 131.7 25.4801ZM140.413 12.148L139.277 11.394C132.813 7.64974 124.459 12.5873 124.459 19.7405C124.459 21.6036 124.647 22.9172 125.422 24.4663C125.771 25.1644 125.923 25.4667 126.361 26.0507C127.932 28.1468 129.849 29.462 132.485 30.0051C134.673 30.4554 136.928 30.0901 138.758 29.2078C139.931 28.6419 140.73 27.9563 141.639 27.0488C143.247 25.447 144.434 22.9338 144.434 19.7397V10.6281C144.434 8.25502 143.836 6.32346 142.586 4.64378C142.345 4.3187 142.269 4.23999 142.019 3.95034C141.778 3.6717 141.67 3.44029 141.385 3.19708C137.875 0.205285 135.692 0.125 131.244 0.125C130.388 0.125 129.599 0.754685 129.29 1.3214C128.844 2.14078 129.018 3.14749 129.516 3.76301C131.233 5.88347 135.988 2.66499 139.246 6.86814C140.517 8.50768 140.413 10.0906 140.413 12.1465V12.148Z" fill="#241C16"/>
<path fill-rule="evenodd" clip-rule="evenodd" d="M162.397 17.2101H150.338C150.503 15.2085 153.585 12.9204 156.368 12.9204C159.549 12.9204 161.141 14.5718 162.397 17.2101ZM145.564 19.2354C145.564 22.0115 146.365 23.9391 147.521 25.6156C147.743 25.9391 147.748 25.9014 147.979 26.1666C148.194 26.4146 148.208 26.4854 148.423 26.731C151.307 30.0329 156.621 31.1703 160.803 29.3961C166.793 26.8553 163.269 24.1697 162.021 24.1697C160.472 24.1697 160.313 25.8148 155.991 25.8148C154.014 25.8148 152.087 24.5664 151.088 23.1615C150.742 22.6742 150.501 22.0634 150.212 21.5125C151.652 21.5125 164.491 21.6101 165.26 21.4857C166.968 21.2086 167.097 19.6785 166.943 18.3263C166.571 15.085 165.834 13.6729 163.686 11.4839C159.679 7.39965 152.211 7.8357 148.687 11.7508C148.463 11.9995 148.386 12.1498 148.108 12.4324C147.851 12.6929 147.697 12.8905 147.482 13.1943C146.368 14.7654 145.565 17.1086 145.565 19.2354H145.564Z" fill="#241C16"/>
<path fill-rule="evenodd" clip-rule="evenodd" d="M172.447 16.0712V15.3117C172.447 13.7044 174.093 12.2837 175.712 12.2852C177.396 12.2868 179.105 13.6398 179.105 15.3117V16.0712C179.105 17.5801 177.588 19.1079 176.09 19.1079H175.462C174.004 19.1079 172.447 17.5392 172.447 16.0712ZM168.553 15.691C168.553 18.5805 170.065 21.0016 172.447 22.272C172.34 22.675 170.696 24.5672 170.405 24.8962C169.429 26.0006 168.553 26.8262 168.553 27.966C168.553 29.0876 169.609 30.1171 170.689 30.1171C171.958 30.1171 172.36 29.2096 172.982 28.5051C174.319 26.9939 175.979 24.7404 177.342 23.1528C177.643 22.8018 178.129 22.6656 178.728 22.5255C178.728 24.1272 178.738 25.7329 178.727 27.3347C178.72 28.3548 178.685 28.6917 179.195 29.2678C180.807 31.0923 182.999 29.6574 182.999 27.9667V15.5651C182.999 14.1019 182.427 12.6804 181.67 11.5894L179.933 9.79561C178.034 8.34104 175.231 8.16709 172.928 9.08958C170.559 10.0396 168.553 12.7764 168.553 15.6918V15.691Z" fill="#241C16"/>
<path fill-rule="evenodd" clip-rule="evenodd" d="M98.9583 10.7558C98.9583 11.7633 99.7521 12.5394 100.232 13.1431L104.161 18.2955C104.459 18.6789 104.738 18.985 104.988 19.3613L100.254 25.6015C99.6599 26.3342 98.959 27.1166 98.959 27.9667C98.959 29.4921 100.983 31.2206 102.701 29.4591L107.752 23.0316L112.74 29.3953C114.783 31.5685 117.6 28.7979 116.12 26.7506L110.515 19.3621L115.271 13.1439C115.751 12.5402 116.545 11.7641 116.545 10.7566C116.545 9.60037 115.557 8.60547 114.409 8.60547C112.95 8.60547 112.468 9.78062 111.606 10.844C111.072 11.5044 107.995 15.3738 107.878 15.8185H107.626C107.528 15.4486 107.208 15.1251 106.969 14.8354C106.681 14.4852 106.495 14.1908 106.205 13.8334C105.677 13.1817 105.209 12.5756 104.719 11.9145C103.618 10.4284 102.6 8.60626 101.094 8.60626C99.9459 8.60626 98.9583 9.60037 98.9583 10.7574V10.7558Z" fill="#241C16"/>
<path fill-rule="evenodd" clip-rule="evenodd" d="M117.801 11.1361V27.7134C117.801 30.9979 122.198 31.1491 122.198 27.7134V11.0094C122.198 10.4175 121.882 9.66658 121.594 9.33993C120.407 7.99791 117.801 8.55991 117.801 11.1361Z" fill="#241C16"/>
<path fill-rule="evenodd" clip-rule="evenodd" d="M117.801 2.27763C117.801 3.49922 118.862 4.46578 119.95 4.51143C122.801 4.63265 122.906 0.126465 120.062 0.126465C119.257 0.126465 118.747 0.523166 118.318 1.02613C118.033 1.36065 117.801 1.93523 117.801 2.27763Z" fill="#241C16"/>
<path fill-rule="evenodd" clip-rule="evenodd" d="M88.1541 25.9415C86.7632 25.9415 85.624 26.0233 84.3871 25.3063C78.2962 21.7761 81.1443 13.1597 87.0234 13.1597C88.3525 13.1597 88.9933 13.1699 90.1989 13.7571C91.5492 14.4143 92.6775 15.6272 93.2541 17.0062C95.256 21.7903 91.2663 25.9407 88.1541 25.9407V25.9415ZM79.012 40.8737H78.7393C77.6914 40.8131 76.7225 40.0748 76.7225 39.1019V18.8544C76.7225 15.9468 78.2611 13.5918 80.0825 11.7358C84.0753 7.66723 90.8826 7.84984 94.8434 11.8625C95.8608 12.8928 96.4124 13.5682 97.0751 14.9291C99.334 19.5675 97.8056 25.6038 93.3815 28.5492C90.0473 30.7696 85.7467 31.001 82.2094 29.0183L80.9935 28.2186C80.9935 30.6649 80.9935 33.1112 80.9935 35.5583C80.9935 37.1318 81.3358 39.46 80.3356 40.3376C79.9449 40.6808 79.4777 40.8469 79.0112 40.8737H79.012Z" fill="#241C16"/>
<path d="M84.0245 37.6365L84.6191 36.496H85.3005L84.4034 38.0985L84.0245 37.6365ZM83.1157 36.496H83.7283V39.1745H83.1157V36.496ZM84.0354 38.0442L84.5589 37.7734L85.4575 39.1745H84.7074L84.0354 38.045V38.0442ZM83.3962 37.5357H84.5613V38.1269H83.3962V37.5357ZM86.7851 39.2123C86.5483 39.2123 86.3467 39.1666 86.1787 39.0753C86.0107 38.984 85.8826 38.851 85.7943 38.6763C85.7068 38.5023 85.663 38.2914 85.663 38.0458V37.6097C85.663 37.3665 85.7068 37.1587 85.7943 36.9863C85.8826 36.8132 86.0107 36.6817 86.1787 36.5912C86.3467 36.5007 86.5483 36.4558 86.7851 36.4558C87.0218 36.4558 87.2242 36.5007 87.3914 36.5912C87.5594 36.6809 87.6868 36.8132 87.7743 36.9863C87.8634 37.1587 87.9071 37.3665 87.9071 37.6097V38.0537C87.9071 38.2977 87.8634 38.5062 87.7743 38.6794C87.6876 38.8518 87.5594 38.984 87.3914 39.0753C87.2242 39.1666 87.0218 39.2123 86.7851 39.2123ZM86.7851 38.6219C86.946 38.6219 87.0726 38.5716 87.1609 38.4724C87.25 38.3724 87.2945 38.2331 87.2945 38.0544V37.6105C87.2945 37.4311 87.25 37.2925 87.1609 37.1949C87.0726 37.0973 86.9468 37.0477 86.7851 37.0477C86.6225 37.0477 86.4967 37.0965 86.4084 37.1949C86.3201 37.2925 86.2756 37.4311 86.2756 37.6105V38.0544C86.2756 38.2331 86.3201 38.3724 86.4084 38.4724C86.4975 38.5716 86.6225 38.6219 86.7851 38.6219ZM90.2403 36.496H90.8529V39.1745H90.2403V36.496ZM88.5979 36.496H89.2112V39.1745H88.5979V36.496ZM88.9495 37.5743H90.581V38.1387H88.9495V37.5743ZM91.5749 38.6086H91.6359C91.7327 38.6086 91.8062 38.581 91.8554 38.5243C91.9039 38.4669 91.9367 38.3842 91.9539 38.2748C91.9711 38.1654 91.9804 38.0159 91.9804 37.8246V36.4952H92.5923V37.9993C92.5923 38.2953 92.5251 38.5196 92.3915 38.6731C92.2578 38.825 92.0648 38.9022 91.8164 38.9022H91.7554L91.5757 38.6078L91.5749 38.6086ZM91.4772 38.6086H92.0515V39.8483H91.4772V38.6086ZM91.4772 38.6086H94.0613V39.1737H91.4772V38.6086ZM93.7518 38.6086H94.3254V39.8483H93.7518V38.6086ZM93.2978 36.496H93.9112V39.1745H93.2978V36.496ZM92.2914 36.496H93.5229V37.0611H92.2914V36.496ZM96.5679 39.1714V37.3342L96.6304 37.4011L95.4544 39.1714H94.9239V36.496H95.5185V38.3772L95.4568 38.3095L96.6375 36.4952H97.1625V39.1706H96.5679V39.1714ZM98.376 36.777H98.9878V39.1745H98.376V36.777ZM97.6235 36.496H99.7387V37.0737H97.6235V36.496ZM101.315 39.2131C101.064 39.2131 100.85 39.1658 100.672 39.0722C100.494 38.9793 100.358 38.8423 100.265 38.6613C100.17 38.4818 100.124 38.2662 100.124 38.0135V37.7113C100.124 37.446 100.168 37.2201 100.258 37.032C100.347 36.8447 100.479 36.7014 100.65 36.6038C100.822 36.5062 101.027 36.4574 101.268 36.4574C101.495 36.4574 101.689 36.5141 101.851 36.629C102.012 36.7431 102.135 36.9092 102.22 37.1257C102.304 37.3421 102.347 37.6034 102.347 37.9096V38.0851H100.54V37.6333H101.777L101.775 37.6026C101.759 37.4169 101.705 37.2721 101.619 37.169C101.532 37.0651 101.414 37.0139 101.267 37.0139C101.084 37.0139 100.943 37.0721 100.842 37.1886C100.741 37.3035 100.691 37.4688 100.691 37.6829V38.023C100.691 38.2245 100.745 38.3795 100.854 38.4889C100.962 38.5983 101.115 38.6526 101.314 38.6526C101.415 38.6526 101.515 38.6338 101.612 38.596C101.71 38.5574 101.799 38.5031 101.877 38.433L102.277 38.8124C102.142 38.9392 101.991 39.0375 101.822 39.1076C101.654 39.1769 101.484 39.2123 101.314 39.2123L101.315 39.2131ZM103.013 36.496H103.625V40.2631H103.013V36.496ZM104.268 39.2131C104.107 39.2131 103.968 39.1737 103.85 39.0934C103.733 39.0131 103.646 38.8998 103.589 38.7534L103.625 38.1678C103.625 38.2693 103.642 38.3559 103.678 38.4275C103.714 38.4992 103.767 38.5535 103.835 38.5913C103.903 38.6298 103.986 38.6479 104.083 38.6479C104.235 38.6479 104.354 38.5991 104.436 38.5023C104.52 38.4047 104.562 38.2693 104.562 38.093V37.5901C104.562 37.4098 104.52 37.2697 104.436 37.1713C104.354 37.0721 104.235 37.0233 104.083 37.0233C103.986 37.0233 103.903 37.0422 103.835 37.0792C103.767 37.1162 103.714 37.1705 103.678 37.2429C103.643 37.3154 103.625 37.4011 103.625 37.5035L103.571 36.9486C103.648 36.7919 103.747 36.6715 103.871 36.5865C103.993 36.5007 104.13 36.459 104.281 36.459C104.468 36.459 104.629 36.5023 104.764 36.5896C104.897 36.6778 105 36.8061 105.069 36.9753C105.14 37.1453 105.174 37.3492 105.174 37.5885V38.0938C105.174 38.3299 105.14 38.5322 105.069 38.6983C104.997 38.8644 104.893 38.9919 104.758 39.0816C104.622 39.1706 104.459 39.2146 104.267 39.2146L104.268 39.2131ZM106.965 39.2131C106.717 39.2131 106.506 39.1658 106.33 39.0714C106.155 38.9761 106.019 38.84 105.928 38.6597C105.836 38.4795 105.79 38.2638 105.79 38.0112V37.6475C105.79 37.3956 105.836 37.1815 105.928 37.0037C106.02 36.8258 106.155 36.6896 106.33 36.5967C106.506 36.5038 106.717 36.4582 106.965 36.4582C107.106 36.4582 107.24 36.4747 107.367 36.5086C107.491 36.5416 107.604 36.5904 107.705 36.655C107.805 36.7187 107.887 36.7959 107.954 36.8872L107.54 37.2799C107.47 37.2059 107.388 37.1485 107.294 37.1091C107.2 37.0698 107.102 37.0501 106.999 37.0501C106.81 37.0501 106.663 37.102 106.558 37.2059C106.454 37.3098 106.402 37.4578 106.402 37.6491V38.0127C106.402 38.2064 106.454 38.3575 106.558 38.463C106.663 38.57 106.809 38.6235 106.999 38.6235C107.104 38.6235 107.202 38.6023 107.296 38.559C107.391 38.5157 107.471 38.4551 107.54 38.3756L107.954 38.7928C107.886 38.8833 107.803 38.9588 107.703 39.0218C107.602 39.0848 107.489 39.132 107.365 39.1643C107.241 39.1973 107.107 39.2139 106.966 39.2139L106.965 39.2131ZM108.783 38.5834H109.695C109.79 38.5834 109.867 38.5527 109.922 38.4921C109.979 38.4315 110.007 38.3496 110.007 38.2481C110.007 38.1812 109.994 38.1221 109.969 38.0718C109.943 38.0206 109.908 37.982 109.86 37.9537C109.813 37.9261 109.758 37.9128 109.695 37.9128H108.783V37.3602H109.7C109.883 37.3602 110.044 37.398 110.185 37.4728C110.324 37.5475 110.433 37.653 110.511 37.7916C110.588 37.9285 110.627 38.0883 110.627 38.2685C110.627 38.4472 110.59 38.6046 110.513 38.7416C110.436 38.8793 110.328 38.9848 110.187 39.0604C110.047 39.1359 109.885 39.1737 109.701 39.1737H108.784V38.5826L108.783 38.5834ZM108.478 36.496H109.091V39.1745H108.478V36.496ZM112.163 37.6365L112.757 36.496H113.439L112.542 38.0985L112.163 37.6365H112.163ZM111.255 36.496H111.867V39.1745H111.255V36.496ZM112.174 38.0442L112.696 37.7734L113.595 39.1745H112.845L112.174 38.045L112.174 38.0442ZM111.534 37.5357H112.7V38.1269H111.534V37.5357ZM113.937 35.4224H114.549V36.0387H113.937V35.4224ZM113.937 36.496H114.549V39.1745H113.937V36.496ZM117.013 38.6605H117.933C118.037 38.6605 118.117 38.6338 118.173 38.5794C118.229 38.5251 118.257 38.4488 118.257 38.3504V38.3433C118.257 38.2434 118.229 38.1654 118.173 38.1111C118.117 38.0552 118.036 38.0277 117.933 38.0277H117.013V37.5145H117.933C118.022 37.5145 118.09 37.4932 118.137 37.4499C118.185 37.4067 118.209 37.3468 118.209 37.2689C118.209 37.1863 118.185 37.1225 118.137 37.0776C118.09 37.032 118.024 37.0092 117.938 37.0092H117.013V36.4952H118.02C118.276 36.4952 118.475 36.5534 118.615 36.6699C118.756 36.7864 118.827 36.9501 118.827 37.1611C118.827 37.324 118.78 37.4586 118.685 37.5641C118.592 37.6696 118.46 37.7372 118.288 37.7664C118.474 37.8041 118.618 37.886 118.721 38.0104C118.824 38.1355 118.874 38.2914 118.874 38.4795V38.4874C118.874 38.7054 118.799 38.8746 118.648 38.9935C118.499 39.1131 118.285 39.1729 118.01 39.1729H117.011V38.6597L117.013 38.6605ZM116.68 36.496H117.29V39.1745H116.68V36.496ZM121.159 39.1714V37.3342L121.221 37.4011L120.045 39.1714H119.515V36.496H120.109V38.3772L120.047 38.3095L121.228 36.4952H121.753V39.1706H121.159L121.159 39.1714ZM122.521 36.496H123.134V40.2631H122.521V36.496ZM123.777 39.2131C123.616 39.2131 123.477 39.1737 123.359 39.0934C123.242 39.0131 123.154 38.8998 123.098 38.7534L123.134 38.1678C123.134 38.2693 123.151 38.3559 123.188 38.4275C123.224 38.4992 123.276 38.5535 123.344 38.5913C123.412 38.6298 123.495 38.6479 123.593 38.6479C123.744 38.6479 123.862 38.5991 123.946 38.5023C124.029 38.4047 124.072 38.2693 124.072 38.093V37.5901C124.072 37.4098 124.029 37.2697 123.946 37.1713C123.862 37.0721 123.744 37.0233 123.593 37.0233C123.496 37.0233 123.413 37.0422 123.344 37.0792C123.276 37.1162 123.224 37.1705 123.188 37.2429C123.152 37.3154 123.134 37.4011 123.134 37.5035L123.08 36.9486C123.157 36.7919 123.257 36.6715 123.38 36.5865C123.504 36.5007 123.639 36.459 123.79 36.459C123.977 36.459 124.14 36.5023 124.272 36.5896C124.406 36.6778 124.508 36.8061 124.578 36.9753C124.648 37.1453 124.683 37.3492 124.683 37.5885V38.0938C124.683 38.3299 124.648 38.5322 124.577 38.6983C124.505 38.8644 124.402 38.9919 124.266 39.0816C124.131 39.1706 123.968 39.2146 123.776 39.2146L123.777 39.2131ZM126.42 39.2131C126.184 39.2131 125.982 39.1674 125.814 39.0761C125.646 38.9848 125.518 38.8518 125.429 38.677C125.342 38.5031 125.298 38.2922 125.298 38.0466V37.6105C125.298 37.3673 125.342 37.1595 125.429 36.9871C125.518 36.814 125.646 36.6825 125.814 36.592C125.982 36.5015 126.184 36.4566 126.42 36.4566C126.657 36.4566 126.86 36.5015 127.027 36.592C127.195 36.6817 127.323 36.814 127.41 36.9871C127.499 37.1595 127.542 37.3673 127.542 37.6105V38.0544C127.542 38.2984 127.499 38.507 127.41 38.6802C127.323 38.8526 127.196 38.9848 127.027 39.0761C126.86 39.1674 126.657 39.2131 126.42 39.2131ZM126.42 38.6227C126.581 38.6227 126.708 38.5724 126.796 38.4732C126.885 38.3732 126.931 38.2339 126.931 38.0552V37.6113C126.931 37.4318 126.886 37.2933 126.796 37.1957C126.708 37.0981 126.581 37.0485 126.42 37.0485C126.258 37.0485 126.133 37.0973 126.044 37.1957C125.955 37.2933 125.911 37.4318 125.911 37.6113V38.0552C125.911 38.2339 125.955 38.3732 126.044 38.4732C126.133 38.5724 126.258 38.6227 126.42 38.6227ZM129.356 39.2131C129.12 39.2131 128.918 39.1674 128.75 39.0761C128.582 38.9848 128.454 38.8518 128.366 38.677C128.279 38.5031 128.234 38.2922 128.234 38.0466V37.6357L128.693 37.169C128.736 36.9675 128.822 36.8155 128.95 36.7132C129.079 36.6101 129.252 36.5597 129.472 36.5597C129.684 36.5597 129.865 36.6046 130.016 36.6951C130.167 36.7864 130.282 36.9171 130.36 37.0902C130.439 37.2634 130.478 37.4704 130.478 37.7136V38.0544C130.478 38.2984 130.434 38.507 130.345 38.6802C130.257 38.8526 130.13 38.9848 129.962 39.0761C129.796 39.1674 129.593 39.2131 129.355 39.2131H129.356ZM129.354 38.6227C129.515 38.6227 129.641 38.5731 129.731 38.4748C129.82 38.3748 129.866 38.2355 129.866 38.0552V37.7144C129.866 37.5357 129.82 37.3964 129.731 37.2988C129.641 37.2012 129.515 37.1516 129.354 37.1516C129.193 37.1516 129.068 37.2004 128.98 37.2988C128.89 37.3964 128.847 37.5357 128.847 37.7144V38.0552C128.847 38.2363 128.89 38.3748 128.98 38.4748C129.068 38.5731 129.193 38.6227 129.354 38.6227ZM128.234 36.7597C128.234 36.5054 128.275 36.2953 128.359 36.1323C128.44 35.9686 128.568 35.8466 128.737 35.7663C128.907 35.6868 129.124 35.6451 129.39 35.6412C129.471 35.6396 129.539 35.6309 129.593 35.616C129.646 35.6002 129.687 35.5766 129.712 35.5436C129.737 35.5113 129.75 35.4704 129.75 35.4224H130.349C130.349 35.5932 130.317 35.7333 130.252 35.8435C130.187 35.9537 130.088 36.0355 129.953 36.0883C129.819 36.1426 129.645 36.1685 129.433 36.1685C129.292 36.1685 129.178 36.1898 129.089 36.2323C128.998 36.2748 128.931 36.3386 128.887 36.4251C128.843 36.5125 128.819 36.6243 128.819 36.7597V37.7451H128.233V36.7597H128.234ZM132.814 39.1714V37.3342L132.875 37.4011L131.7 39.1714H131.17V36.496H131.763V38.3772L131.702 38.3095L132.882 36.4952H133.407V39.1706H132.814V39.1714ZM136.451 39.2131C136.257 39.2131 136.088 39.1792 135.942 39.1139C135.796 39.0478 135.678 38.951 135.589 38.8242C135.499 38.6959 135.441 38.544 135.416 38.3669H136.013C136.029 38.4614 136.075 38.5346 136.152 38.5889C136.227 38.6424 136.326 38.6692 136.448 38.6692C136.581 38.6692 136.684 38.6416 136.757 38.5873C136.829 38.533 136.865 38.4574 136.865 38.3567V38.3543C136.865 38.2725 136.837 38.2079 136.779 38.1639C136.722 38.119 136.642 38.0962 136.538 38.0962H136.184V37.5751H136.538C136.617 37.5751 136.68 37.5507 136.724 37.5011C136.769 37.4523 136.792 37.3838 136.792 37.2933V37.291C136.792 37.1949 136.761 37.1202 136.698 37.0682C136.635 37.0155 136.547 36.9903 136.433 36.9903C136.322 36.9903 136.229 37.017 136.154 37.0721C136.079 37.1272 136.027 37.2052 136.001 37.3043H135.406C135.46 37.0344 135.577 36.8258 135.758 36.6794C135.938 36.533 136.168 36.459 136.446 36.459C136.744 36.459 136.972 36.522 137.135 36.6502C137.297 36.777 137.378 36.9572 137.378 37.1918V37.1941C137.378 37.335 137.343 37.4586 137.273 37.5625C137.203 37.6672 137.105 37.7443 136.979 37.7923C137.129 37.816 137.246 37.8797 137.328 37.9852C137.411 38.0907 137.453 38.2276 137.453 38.3961V38.3984C137.453 38.6566 137.367 38.8573 137.192 38.9998C137.017 39.1422 136.771 39.2139 136.452 39.2139L136.451 39.2131ZM139.563 37.4759C139.563 37.3264 139.519 37.2115 139.43 37.128C139.342 37.0454 139.219 37.0037 139.058 37.0037C138.954 37.0037 138.854 37.0202 138.755 37.0532C138.656 37.0855 138.568 37.1312 138.492 37.1894L138.082 36.8431C138.186 36.7219 138.323 36.6266 138.492 36.5589C138.66 36.4905 138.849 36.4566 139.055 36.4566C139.282 36.4566 139.476 36.4952 139.637 36.5739C139.797 36.6518 139.919 36.766 140.004 36.9147C140.087 37.0635 140.128 37.2437 140.128 37.4531V39.1737H139.562V37.4759H139.563ZM138.867 39.2131C138.561 39.2131 138.332 39.1446 138.18 39.0084C138.028 38.8715 137.952 38.6637 137.952 38.3858C137.952 38.1206 138.029 37.9222 138.182 37.79C138.336 37.657 138.567 37.5908 138.875 37.5908H139.587L139.622 38.071H138.877C138.755 38.071 138.665 38.097 138.605 38.1489C138.546 38.2008 138.515 38.2796 138.516 38.3866C138.515 38.4976 138.554 38.5802 138.632 38.6338C138.71 38.6865 138.827 38.714 138.987 38.714C139.181 38.714 139.326 38.692 139.421 38.6487C139.516 38.6062 139.563 38.5385 139.563 38.448L139.616 38.8321C139.587 38.9163 139.537 38.9872 139.465 39.0438C139.392 39.1005 139.305 39.1422 139.202 39.1714C139.1 39.1997 138.988 39.2139 138.867 39.2139V39.2131ZM143.922 36.496H144.534V39.1745H143.922V36.496ZM142.28 36.496H142.893V39.1745H142.28V36.496ZM142.631 37.5743H144.262V38.1387H142.631V37.5743ZM146.946 39.1714V37.3342L147.009 37.4011L145.833 39.1714H145.302V36.496H145.897V38.3772L145.835 38.3095L147.016 36.4952H147.541V39.1706H146.946V39.1714ZM149.175 39.2131C148.982 39.2131 148.812 39.1792 148.666 39.1139C148.521 39.0478 148.403 38.951 148.313 38.8242C148.223 38.6959 148.165 38.544 148.14 38.3669H148.737C148.754 38.4614 148.8 38.5346 148.876 38.5889C148.951 38.6424 149.05 38.6692 149.172 38.6692C149.305 38.6692 149.408 38.6416 149.48 38.5873C149.553 38.533 149.589 38.4574 149.589 38.3567V38.3543C149.589 38.2725 149.562 38.2079 149.504 38.1639C149.447 38.119 149.366 38.0962 149.262 38.0962H148.908V37.5751H149.262C149.342 37.5751 149.404 37.5507 149.448 37.5011C149.493 37.4523 149.515 37.3838 149.515 37.2933V37.291C149.515 37.1949 149.484 37.1202 149.421 37.0682C149.359 37.0155 149.27 36.9903 149.156 36.9903C149.044 36.9903 148.952 37.017 148.877 37.0721C148.802 37.1272 148.75 37.2052 148.723 37.3043H148.129C148.183 37.0344 148.3 36.8258 148.48 36.6794C148.662 36.533 148.89 36.459 149.169 36.459C149.466 36.459 149.696 36.522 149.858 36.6502C150.02 36.777 150.101 36.9572 150.101 37.1918V37.1941C150.101 37.335 150.066 37.4586 149.996 37.5625C149.927 37.6672 149.829 37.7443 149.702 37.7923C149.852 37.816 149.968 37.8797 150.052 37.9852C150.135 38.0907 150.175 38.2276 150.175 38.3961V38.3984C150.175 38.6566 150.088 38.8573 149.914 38.9998C149.74 39.1422 149.493 39.2139 149.174 39.2139L149.175 39.2131ZM151.109 38.5834H152.021C152.116 38.5834 152.192 38.5527 152.249 38.4921C152.304 38.4315 152.332 38.3496 152.332 38.2481C152.332 38.1812 152.32 38.1221 152.295 38.0718C152.268 38.0206 152.232 37.982 152.186 37.9537C152.139 37.9261 152.083 37.9128 152.02 37.9128H151.108V37.3602H152.025C152.208 37.3602 152.369 37.398 152.509 37.4728C152.65 37.5475 152.757 37.653 152.835 37.7916C152.913 37.9285 152.951 38.0883 152.951 38.2685C152.951 38.4472 152.913 38.6046 152.836 38.7416C152.76 38.8793 152.651 38.9848 152.511 39.0604C152.371 39.1359 152.208 39.1737 152.025 39.1737H151.107V38.5826L151.109 38.5834ZM150.804 36.496H151.417V39.1745H150.804V36.496ZM154.49 37.6365L155.084 36.496H155.766L154.87 38.0985L154.49 37.6365ZM153.581 36.496H154.194V39.1745H153.581V36.496ZM154.501 38.0442L155.023 37.7734L155.922 39.1745H155.172L154.501 38.045V38.0442ZM153.861 37.5357H155.026V38.1269H153.861V37.5357ZM157.926 39.1714V37.3342L157.988 37.4011L156.812 39.1714H156.281V36.496H156.875V38.3772L156.814 38.3095L157.995 36.4952H158.52V39.1706H157.926V39.1714ZM161.293 36.496H161.839V39.1745H161.286V37.3476L161.311 37.5121L160.745 38.6526H160.381L159.819 37.5121L159.844 37.3476V39.1745H159.288V36.496H159.836L160.563 37.9639L161.293 36.496ZM164.252 39.1714V37.3342L164.314 37.4011L163.139 39.1714H162.608V36.496H163.202V38.3772L163.141 38.3095L164.321 36.4952H164.847V39.1706H164.253L164.252 39.1714ZM168.578 36.496H169.19V39.1745H168.578V36.496ZM167.363 38.5968H168.841V39.1745H167.363V38.5968ZM167.013 36.496H167.626V39.1745H167.013V36.496ZM169.041 38.5968H169.653V39.8451H169.041V38.5968ZM170.222 35.4232H170.835V36.0395H170.222V35.4232ZM170.222 36.4968H170.835V39.1753H170.222V36.4968ZM173.198 36.4968H173.811V39.1753H173.198V36.4968ZM171.557 36.4968H172.169V39.1753H171.557V36.4968ZM171.908 37.5751H173.54V38.1395H171.908V37.5751ZM176.063 37.4767C176.063 37.3272 176.018 37.2122 175.931 37.1288C175.842 37.0462 175.718 37.0044 175.558 37.0044C175.454 37.0044 175.354 37.021 175.256 37.054C175.157 37.0863 175.068 37.132 174.992 37.1902L174.582 36.8439C174.687 36.7227 174.823 36.6274 174.992 36.5597C175.16 36.4913 175.348 36.4574 175.556 36.4574C175.782 36.4574 175.976 36.496 176.137 36.5747C176.297 36.6526 176.419 36.7667 176.503 36.9155C176.586 37.0643 176.628 37.2445 176.628 37.4539V39.1745H176.062V37.4767H176.063ZM175.366 39.2139C175.06 39.2139 174.832 39.1454 174.68 39.0092C174.527 38.8723 174.452 38.6645 174.452 38.3866C174.452 38.1214 174.528 37.923 174.682 37.7908C174.835 37.6577 175.065 37.5916 175.374 37.5916H176.086L176.121 38.0718H175.377C175.255 38.0718 175.164 38.0977 175.105 38.1497C175.045 38.2016 175.014 38.2803 175.015 38.3874C175.014 38.4984 175.053 38.581 175.131 38.6345C175.209 38.6873 175.327 38.7148 175.486 38.7148C175.681 38.7148 175.825 38.6928 175.92 38.6495C176.015 38.607 176.063 38.5393 176.063 38.4488L176.116 38.8329C176.087 38.9171 176.037 38.988 175.964 39.0446C175.891 39.1013 175.803 39.143 175.702 39.1721C175.598 39.2005 175.487 39.2146 175.366 39.2146V39.2139ZM179.376 36.4968H179.921V39.1753H179.369V37.3484L179.394 37.5129L178.827 38.6534H178.463L177.9 37.5129L177.925 37.3484V39.1753H177.369V36.4968H177.917L178.645 37.9647L179.374 36.4968H179.376ZM182.335 39.1721V37.335L182.397 37.4019L181.221 39.1721H180.691V36.4968H181.285V38.3779L181.224 38.3103L182.404 36.496H182.93V39.1714H182.336L182.335 39.1721Z" fill="#241C16"/>
</g>
<defs>
<clipPath id="clip0_45_161">
<rect width="183" height="41" fill="white"/>
</clipPath>
</defs>
</svg>
