<svg width="243" height="54" viewBox="0 0 243 54" fill="none" xmlns="http://www.w3.org/2000/svg">
<g clip-path="url(#clip0_94_128)">
<path fill-rule="evenodd" clip-rule="evenodd" d="M28.6907 27.8343C30.2274 27.8343 30.9817 28.5164 32.8638 28.5113C34 28.5081 34.0913 28.4014 34.968 28.1059C35.5532 27.9079 36.3314 27.5451 36.8647 27.5015C36.0211 28.2334 33.9356 28.504 33.5185 29.325C33.0215 30.3047 33.3608 32.7679 33.3608 34.1684H33.1938C33.1938 33.31 33.0537 29.776 32.6874 29.3406C32.3191 28.9042 30.5511 28.4532 29.7854 28.2407C29.5789 28.1837 29.4575 28.1681 29.2573 28.1018L28.6897 27.8353L28.6907 27.8343ZM37.3648 27.3346C37.1801 27.5057 37.6574 27.5015 36.8647 27.5015C37.0483 27.3305 36.5731 27.3346 37.3648 27.3346ZM37.8659 27.0008L37.9147 27.0506C37.9116 27.0475 37.8483 27.0174 37.8659 27.0008ZM22.8555 30.3348C23.34 31.2543 24.2769 31.7104 24.3537 32.9835C25.3643 32.8643 27.9717 33.3474 28.6555 33.8346C28.4199 34.5748 28.0578 35.3709 27.7217 36.192C27.1863 37.5003 27.179 37.21 26.3158 38.0176L26.5233 38.2933L31.6208 39.5736C34.3102 40.0526 34.663 39.7167 36.7464 38.8822L43.3692 35.9992C44.1671 35.6446 44.8062 35.2227 45.5398 34.835C45.3727 34.4856 45.16 33.308 45.0397 32.8352L44.0042 28.5372C43.2063 25.1535 43.5829 25.2519 40.3893 24.3158C38.2488 23.6886 34.0228 22.5587 31.6914 23.1651C30.4743 23.4813 24.7895 25.4883 24.0653 26.2129C23.5496 26.7282 23.0702 29.3914 22.8565 30.3358L22.8555 30.3348Z" fill="white"/>
<path fill-rule="evenodd" clip-rule="evenodd" d="M4.50301 27.1674C4.50301 24.2979 5.28637 20.2932 6.5024 17.8311C6.81886 17.1915 7.10108 16.6286 7.44866 15.9423C10.9017 9.10644 19.1929 4.33359 27.3564 4.33359C33.972 4.33359 39.7553 7.45191 43.0787 10.7921C44.0913 11.8101 44.772 12.5399 45.6363 13.7373C52.1522 22.7605 51.2236 35.069 43.0776 43.209C42.5817 43.7045 42.2351 44.0922 41.7039 44.5017C37.0079 48.1301 33.089 49.6674 26.5222 49.6674C18.065 49.6674 9.51964 43.6288 6.52834 36.3109C5.9556 34.9114 5.52294 33.8384 5.13593 32.2026C4.8589 31.0363 4.50301 28.6167 4.50301 27.1674ZM3.1687 25.6673C3.1687 30.3365 3.44677 33.4186 5.55925 37.6119C8.33993 43.1333 12.098 46.4963 17.4581 49.0558C23.6565 52.0166 30.8229 51.6516 36.9622 49.0973C45.2347 45.6555 51.3771 36.6115 51.3771 27.3333C51.3771 23.3742 50.5491 19.8796 49.1546 16.8877C46.6769 11.5748 42.4893 7.54936 37.2569 5.10798C35.7493 4.40512 34.7117 4.04954 32.9292 3.59858C25.1464 1.62475 16.3406 3.91892 10.718 9.54081C8.45199 11.807 7.19964 13.1764 5.61217 16.273C4.5082 18.4272 3.16974 22.5107 3.16974 25.6653L3.1687 25.6673Z" fill="white"/>
<path fill-rule="evenodd" clip-rule="evenodd" d="M18.6824 26.5008L18.7322 26.5506C18.728 26.5475 18.6647 26.5174 18.6824 26.5008ZM19.0165 26.3339L19.0663 26.3826C19.0621 26.3795 18.9999 26.3495 19.0165 26.3339ZM19.3495 26.167L19.3993 26.2168C19.3962 26.2136 19.3329 26.1836 19.3495 26.167ZM19.6826 26.0001L19.7334 26.0499C19.7293 26.0467 19.667 26.0167 19.6826 26.0001ZM17.347 27.1664L16.1165 27.6038C15.5095 27.7521 15.2522 27.8029 14.5892 27.9107C13.4167 28.1025 12.1634 27.9615 11.3167 27.6919C9.69291 27.1767 8.33993 25.5916 8.33993 23.4996H8.00687C7.6707 24.9385 6.76802 25.8601 7.2619 28.5773C8.07535 33.0599 12.2308 36.9992 17.263 36.9992C17.4913 36.4249 17.4103 36.4259 17.8181 36.0994C17.5047 34.6221 17.6313 34.3526 17.6365 32.8028L20.1505 32.6576C20.5427 31.6966 21.7256 30.7647 22.3772 30.3417L22.3211 30.1655C23.0443 27.9169 22.2869 26.1836 24.4938 25.3055C25.1402 25.0484 25.4297 24.811 26.0211 24.499C26.0211 22.9367 24.666 21.1101 23.6897 20.3284C22.6708 19.5136 20.9007 18.0332 19.3485 17.999C20.0779 19.0875 21.6675 20.1916 19.9233 22.7397C19.472 23.3991 18.8069 23.9381 18.175 24.3269C15.469 25.9939 11.0065 25.433 12.2318 22.3935C12.5524 21.6004 13.1013 20.966 13.837 20.6581C14.9025 20.2144 15.5853 20.4114 16.6799 20.6654C16.9237 21.7134 16.8625 21.9063 16.1798 22.4992C15.3414 22.3043 15.2688 21.8814 14.3454 21.6657C12.3148 23.0248 14.528 25.4766 17.511 23.6634C21.379 21.3112 19.0684 16.8037 13.6533 18.6418C8.43953 20.4114 7.33141 26.139 12.4145 27.4297C15.1059 28.1128 15.7938 27.2016 17.3481 27.1664H17.347Z" fill="white"/>
<path fill-rule="evenodd" clip-rule="evenodd" d="M-0.000915591 27.0007C-0.000915591 34.1756 2.94058 41.0228 7.79639 45.8755C12.8732 50.948 19.1536 53.6402 25.5305 53.9999H28.5176C35.0055 53.6278 41.4135 50.8495 46.5827 45.7107L48.635 43.262C52.1523 38.5731 50.1405 39.3807 46.8203 43.2828C42.4646 48.4019 35.6218 52.5009 28.3547 52.5009C23.392 52.5009 20.2877 52.2314 15.8438 50.0015C1.3251 42.7167 -3.05447 24.6578 6.71732 11.547C9.60279 7.675 13.8599 4.54217 18.448 2.93532C20.0781 2.36515 21.9893 1.88828 23.8641 1.6799C26.6147 1.37408 29.8561 1.94737 29.8561 0.833976C29.8561 0.147696 28.9399 0.0191485 28.1337 0.000488281H27.3535C18.8714 0.000488281 12.3088 3.61331 8.04541 7.87508C3.19167 12.7278 -0.00299072 19.5242 -0.00299072 27.0007H-0.000915591Z" fill="white"/>
<path fill-rule="evenodd" clip-rule="evenodd" d="M33.1949 21.5012H33.696V21.834C33.2083 21.7179 33.4563 21.8557 33.1949 21.5012ZM30.1932 21.0005H30.8603V21.5012H30.1932V21.0005ZM31.0274 20.5008H31.8616C31.9498 20.8802 31.9902 20.8844 32.0286 21.3343C31.5109 21.214 31.5451 21.1218 31.0274 21.0005V20.5008ZM36.5317 20.6667C36.761 19.9763 36.7496 20.4127 37.0328 20.8336C36.8803 20.8305 36.7381 20.8595 36.596 20.7994C35.9703 20.5371 36.6468 20.7963 36.5317 20.6667ZM28.6918 20.6667C28.6918 20.1587 28.9502 20.5651 28.9377 20.7963C28.9024 21.3685 28.6918 20.7372 28.6918 20.6667ZM33.863 20.167C34.7875 20.2437 34.4814 20.4759 35.1974 20.6667V21.1674C34.0716 21.1674 33.9948 21.1933 33.863 20.167ZM37.867 20.0001C38.3692 20.1349 38.2333 19.998 38.3671 20.5008H37.867V20.0001ZM26.1902 20.167C26.9124 19.6839 26.3106 20.0001 27.1915 20.0001C27.2019 20.5081 27.2662 20.6086 27.3575 21.0005C26.6364 20.9404 26.4559 20.6688 26.1902 20.167ZM34.6972 19.1666C35.1911 18.9292 35.1621 18.9997 35.8645 18.9997C35.5221 19.6466 35.932 19.4102 35.3426 19.4921C34.7128 19.5802 34.9234 19.4745 34.6972 19.1666ZM38.2001 18.5C38.916 18.8794 38.503 18.4554 38.7002 18.9997C37.8224 18.5353 38.5622 18.9707 38.2001 18.5ZM42.204 18.5C42.3815 18.3238 42.837 18.7644 42.3898 18.5871C42.3856 18.585 41.9249 18.7799 42.204 18.5ZM40.0355 18.1673C40.4049 18.4233 40.243 18.1942 40.3696 18.6669H40.0355V18.1673ZM33.697 17.8334C34.054 18.3663 33.971 17.9506 34.0301 18.6669H33.1959C33.337 18.0605 33.2882 18.133 33.697 17.8334ZM30.5273 18.1673C30.6871 17.566 30.5428 17.7215 31.1944 17.6676C31.2837 18.048 31.3241 18.0511 31.3615 18.5011C30.5044 18.4824 30.8821 18.6514 30.5273 18.1673ZM29.6931 18.1673C29.6931 17.8853 30.1818 17.933 29.9037 18.1673L29.8414 18.1766C29.6734 18.1797 29.6931 18.5467 29.6931 18.1673ZM40.7016 17.6676C41.1831 17.99 41.3844 18.3528 41.5369 19.0007C40.9652 18.7944 41.458 19.2599 41.0191 18.5176C40.8697 18.2637 40.8137 17.9164 40.7016 17.6676ZM37.0318 17.8345C37.7083 17.6769 37.9531 17.3804 38.033 18.3342C37.2424 18.3165 37.3721 18.3414 37.0318 17.8345ZM35.1974 17.6676C35.685 17.7837 35.4381 17.6458 35.6985 18.0003H35.1974V17.6676ZM38.5342 17.6676C38.5342 17.2156 39.1297 17.6676 38.6825 17.6769C38.5145 17.68 38.5342 18.047 38.5342 17.6676ZM31.6945 17.1679C32.4831 17.1855 32.3492 16.9989 32.5287 17.6676C31.4372 17.6427 32.0017 17.7505 31.6945 17.1679ZM29.526 17.001C29.5686 16.6579 30.4069 17.0414 29.6817 17.0165C29.6184 17.0145 29.4793 17.3742 29.526 17.001ZM36.8658 16.5003C36.8554 16.9471 36.928 17.34 36.5649 17.0197C36.154 16.6568 36.5192 16.7418 36.8658 16.5003ZM38.2001 16.3344C38.8548 16.3489 38.5912 16.2888 39.0343 16.5003C38.9191 16.8165 38.9181 16.9968 38.5394 16.944C38.0092 16.8693 38.2623 16.8185 38.2001 16.3344ZM33.863 16.5003C34.2563 16.409 34.3559 16.3458 34.8643 16.3344C34.6682 16.6029 34.8238 16.5449 34.4773 16.6268C33.7489 16.7968 33.918 16.5355 33.863 16.5003ZM33.1959 15.6668V16.3334H32.0286C32.231 15.4667 32.426 15.4874 33.1959 15.6668ZM36.1986 15.334C36.6925 15.0966 36.6645 15.1671 37.3669 15.1671C37.3275 15.6378 37.37 15.8337 36.8658 15.8337C36.4196 15.8337 36.3729 15.5932 36.1986 15.334ZM34.5312 15.1671H35.0313V15.4999C34.5437 15.3838 34.7906 15.5217 34.5312 15.1671ZM27.5246 18.0003C28.4511 18.2481 27.7041 18.5 29.36 18.5V19.3335C30.0811 19.4869 29.552 19.4009 30.3613 19.3335C30.3187 21.2503 30.3976 19.7357 31.8616 22.5006C32.5049 22.4467 32.4001 22.3337 33.1959 22.3337C32.8722 22.8167 32.8514 22.8478 32.1946 23.0002V23.4999C33.833 23.8814 35.1662 22.1668 37.6989 22.1668C41.1644 22.1668 41.7236 22.3948 45.0387 23.1671C45.0387 20.9248 44.3643 19.8322 43.2738 18.2637C42.423 17.0425 42.4468 17.2166 41.6666 16.5355C36.5701 12.0965 28.2488 15.2874 27.5246 18.0003Z" fill="white"/>
<path fill-rule="evenodd" clip-rule="evenodd" d="M21.9331 35.2471C22.2589 35.921 22.4675 35.6162 22.6189 36.3937C22.7217 36.9245 22.5224 37.3277 22.4073 37.7289C24.0259 37.8388 24.5498 38.0856 26.3158 38.0161C27.1801 37.2085 27.1863 37.4988 27.7217 36.1905C28.0579 35.3695 28.42 34.5733 28.6555 33.8331C27.9717 33.3448 25.3643 32.8617 24.3537 32.982C22.9727 33.292 22.731 34.2789 21.9331 35.2471Z" fill="white" stroke="#5A3B2D" stroke-width="0.28843" stroke-miterlimit="22.9256"/>
<path fill-rule="evenodd" clip-rule="evenodd" d="M21.433 38.1758C21.681 39.2643 21.9217 39.9796 22.2703 40.9997C23.0225 41.7492 23.1242 41.9099 24.3651 42.1556C25.2647 42.3328 26.2037 42.6666 27.1904 42.6666L26.5222 38.2929L26.3147 38.0171C24.5488 38.0866 24.0259 37.8399 22.4062 37.73C22.1302 37.899 21.8677 38.0399 21.4319 38.1758H21.433Z" fill="white" stroke="#5A3B2D" stroke-width="0.28843" stroke-miterlimit="22.9256"/>
<path fill-rule="evenodd" clip-rule="evenodd" d="M17.262 37.0004C16.9912 37.357 16.6135 38.2392 16.5129 38.6664C18.4988 39.7165 17.3243 39.8337 19.5156 39.8337C19.3952 40.3271 19.4668 40.3862 19.7335 40.9439C19.97 41.4415 20.0531 41.6043 20.1838 42.1662C20.9765 42.0998 21.6063 41.3337 22.2703 40.9999C21.9217 39.9798 21.681 39.2645 21.433 38.176C20.5573 38.1605 21.1238 38.2175 20.9236 37.9884C20.5002 37.7914 20.3851 37.6017 20.2492 37.0968C19.7957 36.9932 19.4409 36.8636 18.9947 36.6925L17.9395 36.1752C17.9188 36.1161 17.8596 36.1234 17.8181 36.1006C17.4104 36.4271 17.4913 36.4261 17.263 37.0004H17.262Z" fill="white" stroke="#5A3B2D" stroke-width="0.28843" stroke-miterlimit="22.9256"/>
<path fill-rule="evenodd" clip-rule="evenodd" d="M17.8181 36.1005C17.8596 36.1233 17.9188 36.116 17.9395 36.1751L18.9947 36.6924C19.4409 36.8635 19.7957 36.993 20.2491 37.0967C20.0302 36.0569 20.4732 35.5811 21.2836 35.3344C21.019 34.052 20.9111 33.288 20.1516 32.6587L17.6376 32.8038C17.6324 34.3547 17.5058 34.6232 17.8191 36.1005H17.8181Z" fill="white" stroke="#5A3B2D" stroke-width="0.28843" stroke-miterlimit="22.9256"/>
<path fill-rule="evenodd" clip-rule="evenodd" d="M22.3222 30.1676L22.3782 30.3438C22.5048 31.3058 21.7692 34.1526 21.6 35.3333L21.9341 35.2483C22.732 34.279 22.9727 33.2932 24.3548 32.9832C24.278 31.7101 23.3411 31.255 22.8565 30.3345C22.567 30.0328 22.7331 30.0245 22.3232 30.1676H22.3222Z" fill="white" stroke="#5A3B2D" stroke-width="0.28843" stroke-miterlimit="22.9256"/>
<path fill-rule="evenodd" clip-rule="evenodd" d="M20.1506 32.6588C20.9101 33.288 21.018 34.0521 21.2826 35.3344L21.5648 35.3334L21.598 35.3313C21.7671 34.1516 22.5038 31.3049 22.3762 30.3418C21.7235 30.7648 20.5417 31.6967 20.1495 32.6577L20.1506 32.6588Z" fill="white" stroke="#5A3B2D" stroke-width="0.28843" stroke-miterlimit="22.9256"/>
<path fill-rule="evenodd" clip-rule="evenodd" d="M20.9236 37.9885C21.1238 38.2186 20.5573 38.1606 21.433 38.1761C21.8688 38.0403 22.1313 37.8983 22.4073 37.7303C22.5225 37.3281 22.7217 36.9248 22.619 36.3951C22.4685 35.6176 22.2589 35.9224 21.9331 35.2485L21.599 35.3335L21.5658 35.3356C21.4725 35.8716 21.2961 36.2147 21.2027 36.7009C21.045 37.5189 21.377 37.4307 20.9236 37.9905V37.9885Z" fill="white" stroke="#5A3B2D" stroke-width="0.28843" stroke-miterlimit="22.9256"/>
<path fill-rule="evenodd" clip-rule="evenodd" d="M20.2491 37.0969C20.3851 37.6017 20.5013 37.7915 20.9236 37.9884C21.377 37.4286 21.0449 37.5167 21.2027 36.6988C21.296 36.2126 21.4724 35.8695 21.5658 35.3335L21.2836 35.3345C20.4732 35.5813 20.0302 36.0571 20.2491 37.0969Z" fill="white" stroke="#5A3B2D" stroke-width="0.28843" stroke-miterlimit="22.9256"/>
<path fill-rule="evenodd" clip-rule="evenodd" d="M80.8596 34.0003C76.0443 34.0003 73.3258 33.541 69.6414 29.8754C64.216 24.4774 64.3032 14.8239 69.8894 9.70578C75.5742 4.49855 84.0221 4.52965 89.1591 9.70785C89.7567 10.3112 90.2506 10.7269 90.7756 11.4256C93.8634 15.536 94.4808 21.4886 92.2593 25.8893C91.4158 27.5615 90.7808 28.423 89.653 29.7852C88.0312 31.7414 83.7575 34.0003 80.8596 34.0003ZM60.0076 19.3334C60.0076 25.6582 62.1336 30.2278 65.6375 33.708C70.8606 38.8976 77.3547 40.8963 84.599 39.0686C87.2987 38.3885 88.935 37.4732 91.0838 35.8808C91.6524 35.4589 91.8536 35.2028 92.3454 34.8079C96.5818 31.4003 99.2089 25.4228 99.2089 19.832C99.2089 14.5046 97.3195 10.6004 94.0875 6.78235C92.6629 5.09983 93.4982 6.13236 92.2427 4.95884C90.9655 3.76459 89.5046 2.73309 87.8642 2.0012C86.8702 1.5575 85.4685 1.04124 84.2649 0.764445C77.6431 -0.759469 70.7527 1.0091 65.9726 5.79129C62.9502 8.81528 60.0087 13.3735 60.0087 19.3324L60.0076 19.3334Z" fill="white"/>
<path fill-rule="evenodd" clip-rule="evenodd" d="M174.881 33.5595C167.779 29.9384 169.826 18.6666 178.777 18.6666C181.143 18.6666 182.776 19.7365 183.991 20.9577C187.114 24.0988 187.168 28.826 184.41 31.7951C182.161 34.3308 178.208 35.1135 174.881 33.5595ZM186.451 16.0003L184.942 15.0071C176.358 10.0757 165.266 16.5787 165.266 26.0001C165.266 28.4539 165.515 30.1841 166.544 32.2243C167.008 33.1438 167.209 33.5419 167.791 34.3111C169.878 37.0718 172.423 38.804 175.922 39.5194C178.828 40.1123 181.823 39.6313 184.252 38.4692C185.81 37.7238 186.871 36.8209 188.079 35.6256C190.214 33.516 191.789 30.2059 191.789 25.999V13.9985C191.789 10.8729 190.995 8.32887 189.336 6.1166C189.015 5.68845 188.915 5.58478 188.583 5.20329C188.262 4.8363 188.119 4.53152 187.74 4.21119C183.08 0.27078 180.182 0.165039 174.275 0.165039C173.139 0.165039 172.091 0.99438 171.681 1.74079C171.088 2.81997 171.319 4.14588 171.981 4.95656C174.26 7.74936 180.574 3.51039 184.9 9.04625C186.589 11.2056 186.451 13.2904 186.451 15.9982V16.0003Z" fill="white"/>
<path fill-rule="evenodd" clip-rule="evenodd" d="M215.643 22.6674H199.629C199.848 20.0311 203.941 17.0175 207.636 17.0175C211.86 17.0175 213.974 19.1925 215.643 22.6674ZM193.29 25.3348C193.29 28.9911 194.354 31.5299 195.888 33.7381C196.184 34.1641 196.19 34.1144 196.497 34.4637C196.783 34.7903 196.801 34.8836 197.087 35.207C200.915 39.5559 207.973 41.0539 213.525 38.7172C221.48 35.3708 216.799 31.8337 215.142 31.8337C213.086 31.8337 212.874 34.0003 207.135 34.0003C204.51 34.0003 201.952 32.3562 200.625 30.5057C200.165 29.864 199.846 29.0595 199.462 28.3339C201.374 28.3339 218.422 28.4624 219.444 28.2986C221.711 27.9337 221.883 25.9184 221.678 24.1374C221.184 19.8684 220.206 18.0086 217.353 15.1256C212.033 9.74626 202.116 10.3206 197.437 15.477C197.14 15.8046 197.037 16.0026 196.667 16.3748C196.326 16.7179 196.123 16.9781 195.837 17.3783C194.358 19.4475 193.291 22.5337 193.291 25.3348H193.29Z" fill="white"/>
<path fill-rule="evenodd" clip-rule="evenodd" d="M228.988 21.167V20.1666C228.988 18.0497 231.173 16.1785 233.323 16.1806C235.559 16.1827 237.828 17.9647 237.828 20.1666V21.167C237.828 23.1543 235.814 25.1665 233.825 25.1665H232.991C231.054 25.1665 228.988 23.1004 228.988 21.167ZM223.816 20.6663C223.816 24.4719 225.824 27.6607 228.988 29.3339C228.845 29.8647 226.661 32.3569 226.275 32.7902C224.98 34.2447 223.816 35.3321 223.816 36.8333C223.816 38.3105 225.218 39.6665 226.652 39.6665C228.338 39.6665 228.871 38.4712 229.697 37.5434C231.473 35.553 233.677 32.5849 235.487 30.494C235.886 30.0316 236.532 29.8523 237.328 29.6677C237.328 31.7774 237.34 33.8922 237.326 36.0018C237.317 37.3454 237.271 37.7891 237.947 38.5479C240.089 40.9509 242.999 39.0611 242.999 36.8343V20.5004C242.999 18.5732 242.239 16.701 241.234 15.2642L238.928 12.9016C236.405 10.9858 232.683 10.7567 229.626 11.9717C226.48 13.2229 223.816 16.8275 223.816 20.6673V20.6663Z" fill="white"/>
<path fill-rule="evenodd" clip-rule="evenodd" d="M131.404 14.1667C131.404 15.4936 132.458 16.5158 133.095 17.3109L138.313 24.097C138.708 24.6019 139.078 25.0051 139.41 25.5007L133.124 33.7194C132.335 34.6846 131.405 35.715 131.405 36.8346C131.405 38.8437 134.092 41.1203 136.374 38.8002L143.08 30.3347L149.704 38.7162C152.417 41.5785 156.157 37.9294 154.192 35.233L146.749 25.5017L153.065 17.312C153.702 16.5168 154.756 15.4947 154.756 14.1677C154.756 12.6448 153.445 11.3345 151.92 11.3345C149.982 11.3345 149.343 12.8822 148.199 14.2828C147.489 15.1526 143.403 20.2489 143.247 20.8346H142.913C142.784 20.3473 142.358 19.9213 142.041 19.5398C141.658 19.0784 141.412 18.6907 141.026 18.2201C140.326 17.3617 139.704 16.5635 139.053 15.6927C137.591 13.7354 136.24 11.3355 134.239 11.3355C132.715 11.3355 131.404 12.6448 131.404 14.1687V14.1667Z" fill="white"/>
<path fill-rule="evenodd" clip-rule="evenodd" d="M156.424 14.6673V36.5008C156.424 40.8268 162.263 41.0259 162.263 36.5008V14.5004C162.263 13.7209 161.844 12.7319 161.461 12.3016C159.885 10.5341 156.424 11.2743 156.424 14.6673Z" fill="white"/>
<path fill-rule="evenodd" clip-rule="evenodd" d="M156.424 3.00072C156.424 4.60964 157.833 5.88268 159.278 5.94281C163.064 6.10245 163.203 0.16748 159.427 0.16748C158.357 0.16748 157.68 0.689965 157.11 1.3524C156.733 1.79299 156.424 2.54976 156.424 3.00072Z" fill="white"/>
<path fill-rule="evenodd" clip-rule="evenodd" d="M117.057 34.1671C115.21 34.1671 113.698 34.2749 112.055 33.3305C103.967 28.681 107.749 17.3325 115.556 17.3325C117.321 17.3325 118.171 17.346 119.772 18.1194C121.565 18.985 123.064 20.5825 123.829 22.3988C126.488 28.6997 121.19 34.1661 117.057 34.1661V34.1671ZM104.918 53.8339H104.556C103.164 53.7541 101.878 52.7817 101.878 51.5004V24.8329C101.878 21.0034 103.921 17.9017 106.339 15.4572C111.641 10.0986 120.68 10.3391 125.94 15.6241C127.291 16.9811 128.023 17.8706 128.903 19.663C131.903 25.7721 129.873 33.7224 123.998 37.6016C119.571 40.5261 113.86 40.8309 109.163 38.2195L107.549 37.1662C107.549 40.3882 107.549 43.6102 107.549 46.8332C107.549 48.9056 108.003 51.972 106.675 53.1279C106.156 53.5799 105.536 53.7987 104.917 53.8339H104.918Z" fill="white"/>
<path d="M111.574 49.57L112.363 48.0678H113.268L112.077 50.1785L111.574 49.57ZM110.367 48.0678H111.18V51.5956H110.367V48.0678ZM111.588 50.107L112.283 49.7504L113.477 51.5956H112.48L111.588 50.108V50.107ZM110.739 49.4373H112.286V50.2158H110.739V49.4373ZM115.239 51.6454C114.925 51.6454 114.657 51.5853 114.434 51.465C114.211 51.3448 114.041 51.1696 113.924 50.9394C113.807 50.7103 113.749 50.4325 113.749 50.1091V49.5347C113.749 49.2144 113.807 48.9407 113.924 48.7137C114.041 48.4856 114.211 48.3125 114.434 48.1933C114.657 48.0741 114.925 48.015 115.239 48.015C115.554 48.015 115.822 48.0741 116.044 48.1933C116.268 48.3115 116.437 48.4856 116.553 48.7137C116.671 48.9407 116.729 49.2144 116.729 49.5347V50.1194C116.729 50.4408 116.671 50.7155 116.553 50.9436C116.438 51.1706 116.268 51.3448 116.044 51.465C115.822 51.5853 115.554 51.6454 115.239 51.6454ZM115.239 50.8679C115.453 50.8679 115.621 50.8016 115.738 50.6709C115.857 50.5393 115.916 50.3558 115.916 50.1205V49.5358C115.916 49.2994 115.857 49.117 115.738 48.9884C115.621 48.8599 115.454 48.7945 115.239 48.7945C115.024 48.7945 114.856 48.8588 114.739 48.9884C114.622 49.117 114.563 49.2994 114.563 49.5358V50.1205C114.563 50.3558 114.622 50.5393 114.739 50.6709C114.857 50.8016 115.024 50.8679 115.239 50.8679ZM119.827 48.0678H120.641V51.5956H119.827V48.0678ZM117.646 48.0678H118.461V51.5956H117.646V48.0678ZM118.113 49.4881H120.28V50.2314H118.113V49.4881ZM121.6 50.8503H121.681C121.809 50.8503 121.907 50.814 121.972 50.7394C122.036 50.6637 122.08 50.5548 122.103 50.4107C122.126 50.2666 122.138 50.0697 122.138 49.8177V48.0668H122.951V50.0479C122.951 50.4377 122.861 50.7331 122.684 50.9353C122.506 51.1354 122.25 51.237 121.92 51.237H121.839L121.601 50.8492L121.6 50.8503ZM121.47 50.8503H122.233V52.483H121.47V50.8503ZM121.47 50.8503H124.901V51.5946H121.47V50.8503ZM124.49 50.8503H125.252V52.483H124.49V50.8503ZM123.887 48.0678H124.702V51.5956H123.887V48.0678ZM122.551 48.0678H124.186V48.8122H122.551V48.0678ZM128.23 51.5915V49.1719L128.313 49.26L126.751 51.5915H126.047V48.0678H126.836V50.5455L126.754 50.4563L128.322 48.0668H129.019V51.5905H128.23V51.5915ZM130.631 48.4379H131.443V51.5956H130.631V48.4379ZM129.631 48.0678H132.44V48.8288H129.631V48.0678ZM134.533 51.6464C134.2 51.6464 133.916 51.5842 133.68 51.4609C133.443 51.3385 133.263 51.1582 133.138 50.9197C133.013 50.6834 132.952 50.3993 132.952 50.0665V49.6685C132.952 49.3191 133.011 49.0216 133.129 48.7738C133.248 48.5271 133.423 48.3384 133.65 48.2099C133.878 48.0813 134.151 48.017 134.471 48.017C134.773 48.017 135.03 48.0917 135.245 48.243C135.458 48.3934 135.622 48.6121 135.734 48.8972C135.846 49.1823 135.903 49.5264 135.903 49.9297V50.1609H133.505V49.5658H135.147L135.144 49.5254C135.122 49.2807 135.052 49.09 134.936 48.9542C134.821 48.8174 134.665 48.75 134.47 48.75C134.227 48.75 134.039 48.8267 133.905 48.9801C133.771 49.1315 133.705 49.3492 133.705 49.6311V50.079C133.705 50.3444 133.776 50.5486 133.921 50.6927C134.065 50.8368 134.267 50.9083 134.532 50.9083C134.666 50.9083 134.798 50.8834 134.928 50.8337C135.058 50.7829 135.176 50.7114 135.28 50.6191L135.81 51.1188C135.632 51.2857 135.43 51.4153 135.206 51.5075C134.983 51.5988 134.758 51.6454 134.532 51.6454L134.533 51.6464ZM136.787 48.0678H137.601V53.0294H136.787V48.0678ZM138.454 51.6464C138.24 51.6464 138.056 51.5946 137.899 51.4889C137.744 51.3831 137.628 51.2338 137.553 51.041L137.6 50.2697C137.6 50.4035 137.624 50.5175 137.671 50.6118C137.719 50.7062 137.789 50.7777 137.879 50.8275C137.969 50.8783 138.08 50.9021 138.209 50.9021C138.41 50.9021 138.568 50.8378 138.678 50.7103C138.789 50.5818 138.845 50.4035 138.845 50.1713V49.5088C138.845 49.2714 138.789 49.0869 138.678 48.9573C138.568 48.8267 138.41 48.7624 138.209 48.7624C138.08 48.7624 137.97 48.7873 137.879 48.836C137.789 48.8847 137.719 48.9563 137.671 49.0516C137.625 49.147 137.6 49.26 137.6 49.3948L137.528 48.6639C137.631 48.4576 137.763 48.299 137.927 48.1871C138.09 48.0741 138.271 48.0191 138.471 48.0191C138.719 48.0191 138.934 48.0761 139.113 48.1912C139.29 48.3073 139.426 48.4763 139.518 48.6992C139.612 48.9231 139.657 49.1916 139.657 49.5067V50.1723C139.657 50.4833 139.612 50.7497 139.517 50.9685C139.422 51.1872 139.284 51.3551 139.104 51.4733C138.925 51.5905 138.708 51.6485 138.453 51.6485L138.454 51.6464ZM142.036 51.6464C141.707 51.6464 141.426 51.5842 141.193 51.4598C140.96 51.3344 140.78 51.1551 140.659 50.9177C140.536 50.6803 140.475 50.3962 140.475 50.0634V49.5845C140.475 49.2528 140.536 48.9708 140.659 48.7365C140.781 48.5022 140.96 48.3229 141.193 48.2005C141.426 48.0782 141.707 48.0181 142.036 48.0181C142.223 48.0181 142.401 48.0398 142.569 48.0844C142.734 48.128 142.884 48.1922 143.018 48.2772C143.151 48.3612 143.26 48.4628 143.349 48.5831L142.799 49.1004C142.706 49.0029 142.597 48.9272 142.472 48.8754C142.348 48.8236 142.218 48.7977 142.08 48.7977C141.83 48.7977 141.635 48.8661 141.495 49.0029C141.357 49.1398 141.288 49.3347 141.288 49.5866V50.0655C141.288 50.3205 141.357 50.5196 141.495 50.6585C141.634 50.7995 141.829 50.87 142.08 50.87C142.22 50.87 142.351 50.842 142.475 50.785C142.601 50.7279 142.708 50.6481 142.799 50.5434L143.349 51.0929C143.259 51.2121 143.148 51.3116 143.015 51.3945C142.881 51.4775 142.732 51.5397 142.567 51.5822C142.402 51.6257 142.224 51.6475 142.037 51.6475L142.036 51.6464ZM144.45 50.8171H145.661C145.786 50.8171 145.889 50.7767 145.963 50.6968C146.037 50.617 146.075 50.5092 146.075 50.3755C146.075 50.2874 146.058 50.2096 146.025 50.1433C145.99 50.0759 145.943 50.0251 145.88 49.9878C145.817 49.9515 145.744 49.9339 145.661 49.9339H144.45V49.2061H145.667C145.91 49.2061 146.124 49.2559 146.311 49.3543C146.496 49.4528 146.64 49.5918 146.744 49.7742C146.847 49.9546 146.899 50.165 146.899 50.4024C146.899 50.6378 146.849 50.8451 146.747 51.0255C146.644 51.2069 146.501 51.3458 146.314 51.4453C146.128 51.5448 145.913 51.5946 145.668 51.5946H144.451V50.8161L144.45 50.8171ZM144.044 48.0678H144.859V51.5956H144.044V48.0678ZM148.938 49.57L149.727 48.0678H150.632L149.442 50.1785L148.937 49.57H148.938ZM147.732 48.0678H148.545V51.5956H147.732V48.0678ZM148.953 50.107L149.646 49.7504L150.839 51.5956H149.843L148.952 50.108L148.953 50.107ZM148.103 49.4373H149.651V50.2158H148.103V49.4373ZM151.294 46.6538H152.106V47.4655H151.294V46.6538ZM151.294 48.0678H152.106V51.5956H151.294V48.0678ZM155.378 50.9187H156.6C156.738 50.9187 156.845 50.8835 156.918 50.8119C156.993 50.7404 157.03 50.6398 157.03 50.5102V50.5009C157.03 50.3693 156.993 50.2666 156.918 50.1951C156.844 50.1215 156.737 50.0852 156.6 50.0852H155.378V49.4093H156.6C156.718 49.4093 156.808 49.3813 156.871 49.3243C156.935 49.2673 156.966 49.1885 156.966 49.0859C156.966 48.977 156.935 48.893 156.871 48.8339C156.808 48.7738 156.72 48.7437 156.606 48.7437H155.378V48.0668H156.715C157.055 48.0668 157.319 48.1435 157.506 48.2969C157.692 48.4504 157.787 48.666 157.787 48.9438C157.787 49.1584 157.725 49.3357 157.598 49.4746C157.474 49.6135 157.299 49.7027 157.071 49.741C157.318 49.7908 157.51 49.8986 157.646 50.0624C157.783 50.2272 157.849 50.4325 157.849 50.6803V50.6906C157.849 50.9778 157.749 51.2007 157.549 51.3572C157.351 51.5148 157.068 51.5936 156.703 51.5936H155.375V50.9177L155.378 50.9187ZM154.936 48.0678H155.746V51.5956H154.936V48.0678ZM160.884 51.5915V49.1719L160.966 49.26L159.404 51.5915H158.7V48.0678H159.489V50.5455L159.407 50.4563L160.975 48.0668H161.672V51.5905H160.883L160.884 51.5915ZM162.692 48.0678H163.506V53.0294H162.692V48.0678ZM164.36 51.6464C164.146 51.6464 163.961 51.5946 163.805 51.4889C163.649 51.3831 163.533 51.2338 163.458 51.041L163.506 50.2697C163.506 50.4035 163.529 50.5175 163.577 50.6118C163.625 50.7062 163.695 50.7777 163.785 50.8275C163.875 50.8783 163.985 50.9021 164.115 50.9021C164.316 50.9021 164.473 50.8378 164.584 50.7103C164.695 50.5818 164.751 50.4035 164.751 50.1713V49.5088C164.751 49.2714 164.695 49.0869 164.584 48.9573C164.473 48.8267 164.316 48.7624 164.115 48.7624C163.986 48.7624 163.876 48.7873 163.785 48.836C163.695 48.8847 163.625 48.9563 163.577 49.0516C163.53 49.147 163.506 49.26 163.506 49.3948L163.434 48.6639C163.537 48.4576 163.669 48.299 163.833 48.1871C163.997 48.0741 164.177 48.0191 164.377 48.0191C164.625 48.0191 164.841 48.0761 165.018 48.1912C165.195 48.3073 165.331 48.4763 165.423 48.6992C165.517 48.9231 165.562 49.1916 165.562 49.5067V50.1723C165.562 50.4833 165.517 50.7497 165.422 50.9685C165.327 51.1872 165.19 51.3551 165.009 51.4733C164.83 51.5905 164.613 51.6485 164.359 51.6485L164.36 51.6464ZM167.87 51.6464C167.557 51.6464 167.288 51.5863 167.065 51.4661C166.842 51.3458 166.671 51.1706 166.553 50.9405C166.438 50.7114 166.38 50.4335 166.38 50.1101V49.5358C166.38 49.2154 166.438 48.9418 166.553 48.7147C166.671 48.4867 166.842 48.3135 167.065 48.1943C167.288 48.0751 167.555 48.016 167.87 48.016C168.184 48.016 168.454 48.0751 168.675 48.1943C168.898 48.3125 169.068 48.4867 169.183 48.7147C169.302 48.9418 169.36 49.2154 169.36 49.5358V50.1205C169.36 50.4418 169.302 50.7165 169.183 50.9446C169.068 51.1716 168.899 51.3458 168.675 51.4661C168.454 51.5863 168.184 51.6464 167.87 51.6464ZM167.87 50.8689C168.084 50.8689 168.252 50.8026 168.369 50.672C168.487 50.5403 168.547 50.3568 168.547 50.1215V49.5368C168.547 49.3004 168.488 49.118 168.369 48.9894C168.252 48.8609 168.084 48.7956 167.87 48.7956C167.654 48.7956 167.488 48.8599 167.37 48.9894C167.252 49.118 167.193 49.3004 167.193 49.5368V50.1215C167.193 50.3568 167.252 50.5403 167.37 50.672C167.488 50.8026 167.654 50.8689 167.87 50.8689ZM171.768 51.6464C171.455 51.6464 171.187 51.5863 170.964 51.4661C170.74 51.3458 170.571 51.1706 170.453 50.9405C170.337 50.7114 170.278 50.4335 170.278 50.1101V49.5689L170.887 48.9542C170.944 48.6888 171.058 48.4887 171.228 48.354C171.401 48.2182 171.63 48.1518 171.922 48.1518C172.204 48.1518 172.444 48.2109 172.645 48.3301C172.845 48.4504 172.998 48.6225 173.101 48.8505C173.206 49.0786 173.258 49.3512 173.258 49.6716V50.1205C173.258 50.4418 173.2 50.7165 173.082 50.9446C172.964 51.1716 172.795 51.3458 172.573 51.4661C172.352 51.5863 172.082 51.6464 171.767 51.6464H171.768ZM171.765 50.8689C171.98 50.8689 172.147 50.8036 172.266 50.674C172.384 50.5424 172.446 50.3589 172.446 50.1215V49.6726C172.446 49.4373 172.384 49.2538 172.266 49.1252C172.147 48.9967 171.98 48.9314 171.765 48.9314C171.551 48.9314 171.386 48.9957 171.269 49.1252C171.15 49.2538 171.093 49.4373 171.093 49.6726V50.1215C171.093 50.3599 171.15 50.5424 171.269 50.674C171.386 50.8036 171.551 50.8689 171.765 50.8689ZM170.278 48.4151C170.278 48.0803 170.333 47.8035 170.444 47.5889C170.552 47.3733 170.721 47.2126 170.946 47.1068C171.171 47.0021 171.46 46.9472 171.813 46.942C171.921 46.9399 172.011 46.9285 172.082 46.9088C172.153 46.8881 172.207 46.857 172.24 46.8135C172.273 46.771 172.291 46.717 172.291 46.6538H173.087C173.087 46.8788 173.044 47.0633 172.958 47.2084C172.872 47.3536 172.74 47.4614 172.561 47.5308C172.382 47.6024 172.152 47.6366 171.871 47.6366C171.683 47.6366 171.531 47.6646 171.413 47.7205C171.293 47.7765 171.204 47.8605 171.145 47.9745C171.086 48.0896 171.055 48.2368 171.055 48.4151V49.713H170.277V48.4151H170.278ZM176.359 51.5915V49.1719L176.441 49.26L174.881 51.5915H174.176V48.0678H174.965V50.5455L174.883 50.4563L176.451 48.0668H177.148V51.5905H176.359V51.5915ZM181.189 51.6464C180.932 51.6464 180.708 51.6019 180.514 51.5158C180.32 51.4287 180.163 51.3012 180.045 51.1343C179.925 50.9653 179.849 50.7653 179.814 50.532H180.607C180.629 50.6564 180.69 50.7528 180.792 50.8244C180.892 50.8949 181.023 50.9301 181.185 50.9301C181.361 50.9301 181.498 50.8938 181.596 50.8223C181.691 50.7508 181.739 50.6512 181.739 50.5185V50.5154C181.739 50.4076 181.702 50.3226 181.625 50.2646C181.549 50.2055 181.442 50.1754 181.304 50.1754H180.834V49.4891H181.304C181.41 49.4891 181.493 49.457 181.552 49.3917C181.611 49.3274 181.641 49.2372 181.641 49.118V49.1149C181.641 48.9884 181.601 48.8899 181.517 48.8215C181.434 48.752 181.317 48.7189 181.165 48.7189C181.018 48.7189 180.894 48.7541 180.795 48.8267C180.695 48.8992 180.627 49.0019 180.591 49.1325H179.802C179.873 48.7769 180.028 48.5022 180.269 48.3094C180.508 48.1166 180.813 48.0191 181.183 48.0191C181.578 48.0191 181.881 48.102 182.098 48.271C182.313 48.4379 182.421 48.6753 182.421 48.9843V48.9874C182.421 49.1729 182.374 49.3357 182.281 49.4725C182.188 49.6104 182.058 49.712 181.89 49.7752C182.09 49.8063 182.244 49.8903 182.354 50.0292C182.464 50.1681 182.519 50.3485 182.519 50.5704V50.5735C182.519 50.9135 182.405 51.1779 182.173 51.3655C181.941 51.5531 181.613 51.6475 181.19 51.6475L181.189 51.6464ZM185.322 49.3585C185.322 49.1615 185.263 49.0102 185.145 48.9003C185.028 48.7914 184.864 48.7365 184.651 48.7365C184.513 48.7365 184.38 48.7583 184.249 48.8018C184.117 48.8443 184.001 48.9044 183.899 48.9811L183.354 48.525C183.494 48.3654 183.675 48.2399 183.899 48.1508C184.122 48.0606 184.373 48.016 184.647 48.016C184.948 48.016 185.207 48.0668 185.419 48.1705C185.632 48.2731 185.795 48.4234 185.907 48.6193C186.017 48.8153 186.072 49.0527 186.072 49.3284V51.5946H185.321V49.3585H185.322ZM184.397 51.6464C183.991 51.6464 183.688 51.5563 183.485 51.3769C183.283 51.1965 183.182 50.9228 183.182 50.5569C183.182 50.2075 183.285 49.9463 183.488 49.7721C183.692 49.5969 183.999 49.5099 184.408 49.5099H185.353L185.4 50.1422H184.411C184.249 50.1422 184.129 50.1764 184.05 50.2449C183.971 50.3133 183.93 50.4169 183.931 50.5579C183.929 50.7041 183.982 50.813 184.085 50.8834C184.189 50.9529 184.344 50.9892 184.557 50.9892C184.814 50.9892 185.007 50.9602 185.133 50.9031C185.259 50.8472 185.322 50.758 185.322 50.6388L185.392 51.1447C185.354 51.2556 185.286 51.3489 185.191 51.4236C185.094 51.4982 184.978 51.5531 184.842 51.5915C184.706 51.6288 184.558 51.6475 184.397 51.6475V51.6464ZM191.109 48.0678H191.923V51.5956H191.109V48.0678ZM188.929 48.0678H189.743V51.5956H188.929V48.0678ZM189.395 49.4881H191.562V50.2314H189.395V49.4881ZM195.126 51.5915V49.1719L195.209 49.26L193.647 51.5915H192.943V48.0678H193.732V50.5455L193.65 50.4563L195.218 48.0668H195.915V51.5905H195.126V51.5915ZM198.085 51.6464C197.829 51.6464 197.603 51.6019 197.409 51.5158C197.216 51.4287 197.06 51.3012 196.94 51.1343C196.821 50.9653 196.744 50.7653 196.71 50.532H197.503C197.526 50.6564 197.587 50.7528 197.687 50.8244C197.788 50.8949 197.919 50.9301 198.081 50.9301C198.257 50.9301 198.394 50.8938 198.491 50.8223C198.587 50.7508 198.635 50.6512 198.635 50.5185V50.5154C198.635 50.4076 198.598 50.3226 198.522 50.2646C198.446 50.2055 198.338 50.1754 198.2 50.1754H197.731V49.4891H198.2C198.307 49.4891 198.389 49.457 198.448 49.3917C198.507 49.3274 198.536 49.2372 198.536 49.118V49.1149C198.536 48.9884 198.496 48.8899 198.412 48.8215C198.33 48.752 198.211 48.7189 198.06 48.7189C197.912 48.7189 197.789 48.7541 197.689 48.8267C197.59 48.8992 197.52 49.0019 197.485 49.1325H196.697C196.767 48.7769 196.923 48.5022 197.162 48.3094C197.403 48.1166 197.707 48.0191 198.078 48.0191C198.472 48.0191 198.777 48.102 198.992 48.271C199.206 48.4379 199.314 48.6753 199.314 48.9843V48.9874C199.314 49.1729 199.269 49.3357 199.175 49.4725C199.083 49.6104 198.953 49.712 198.784 49.7752C198.984 49.8063 199.138 49.8903 199.249 50.0292C199.36 50.1681 199.413 50.3485 199.413 50.5704V50.5735C199.413 50.9135 199.298 51.1779 199.066 51.3655C198.835 51.5531 198.507 51.6475 198.084 51.6475L198.085 51.6464ZM200.653 50.8171H201.864C201.99 50.8171 202.091 50.7767 202.167 50.6968C202.24 50.617 202.278 50.5092 202.278 50.3755C202.278 50.2874 202.261 50.2096 202.228 50.1433C202.193 50.0759 202.145 50.0251 202.083 49.9878C202.02 49.9515 201.947 49.9339 201.863 49.9339H200.652V49.2061H201.87C202.113 49.2061 202.326 49.2559 202.512 49.3543C202.699 49.4528 202.842 49.5918 202.945 49.7742C203.049 49.9546 203.099 50.165 203.099 50.4024C203.099 50.6378 203.049 50.8451 202.947 51.0255C202.845 51.2069 202.701 51.3458 202.515 51.4453C202.328 51.5448 202.113 51.5946 201.869 51.5946H200.651V50.8161L200.653 50.8171ZM200.248 48.0678H201.062V51.5956H200.248V48.0678ZM205.142 49.57L205.932 48.0678H206.837L205.647 50.1785L205.142 49.57ZM203.936 48.0678H204.75V51.5956H203.936V48.0678ZM205.157 50.107L205.851 49.7504L207.044 51.5956H206.048L205.157 50.108V50.107ZM204.307 49.4373H205.854V50.2158H204.307V49.4373ZM209.705 51.5915V49.1719L209.788 49.26L208.226 51.5915H207.521V48.0678H208.31V50.5455L208.229 50.4563L209.797 48.0668H210.494V51.5905H209.705V51.5915ZM214.176 48.0678H214.901V51.5956H214.167V49.1895L214.2 49.4062L213.449 50.9083H212.966L212.219 49.4062L212.252 49.1895V51.5956H211.514V48.0678H212.241L213.207 50.0012L214.176 48.0678ZM218.106 51.5915V49.1719L218.188 49.26L216.627 51.5915H215.923V48.0678H216.711V50.5455L216.63 50.4563L218.197 48.0668H218.895V51.5905H218.107L218.106 51.5915ZM223.85 48.0678H224.662V51.5956H223.85V48.0678ZM222.236 50.8347H224.199V51.5956H222.236V50.8347ZM221.771 48.0678H222.585V51.5956H221.771V48.0678ZM224.464 50.8347H225.277V52.4789H224.464V50.8347ZM226.033 46.6548H226.846V47.4666H226.033V46.6548ZM226.033 48.0689H226.846V51.5967H226.033V48.0689ZM229.985 48.0689H230.798V51.5967H229.985V48.0689ZM227.805 48.0689H228.618V51.5967H227.805V48.0689ZM228.272 49.4891H230.438V50.2324H228.272V49.4891ZM233.788 49.3595C233.788 49.1626 233.729 49.0112 233.613 48.9013C233.496 48.7925 233.331 48.7375 233.118 48.7375C232.98 48.7375 232.847 48.7593 232.717 48.8028C232.586 48.8453 232.468 48.9055 232.366 48.9822L231.822 48.526C231.961 48.3664 232.142 48.241 232.366 48.1518C232.59 48.0616 232.839 48.017 233.115 48.017C233.415 48.017 233.673 48.0678 233.887 48.1715C234.1 48.2741 234.262 48.4245 234.373 48.6204C234.483 48.8163 234.539 49.0537 234.539 49.3295V51.5956H233.787V49.3595H233.788ZM232.863 51.6475C232.457 51.6475 232.154 51.5573 231.952 51.3779C231.75 51.1976 231.649 50.9239 231.649 50.5579C231.649 50.2086 231.751 49.9473 231.955 49.7732C232.157 49.598 232.464 49.5109 232.873 49.5109H233.82L233.866 50.1433H232.878C232.716 50.1433 232.595 50.1775 232.516 50.2459C232.438 50.3143 232.396 50.418 232.397 50.559C232.396 50.7051 232.448 50.814 232.552 50.8845C232.654 50.9539 232.811 50.9902 233.023 50.9902C233.281 50.9902 233.473 50.9612 233.599 50.9042C233.725 50.8482 233.788 50.759 233.788 50.6398L233.859 51.1457C233.821 51.2567 233.754 51.35 233.657 51.4246C233.56 51.4992 233.444 51.5542 233.309 51.5925C233.171 51.6299 233.024 51.6485 232.863 51.6485V51.6475ZM238.188 48.0689H238.912V51.5967H238.178V49.1906L238.212 49.4072L237.459 50.9094H236.976L236.228 49.4072L236.261 49.1906V51.5967H235.522V48.0689H236.251L237.217 50.0023L238.186 48.0689H238.188ZM242.117 51.5925V49.1729L242.199 49.261L240.639 51.5925H239.934V48.0689H240.723V50.5465L240.642 50.4574L242.209 48.0678H242.907V51.5915H242.118L242.117 51.5925Z" fill="white"/>
</g>
<defs>
<clipPath id="clip0_94_128">
<rect width="243" height="54" fill="white"/>
</clipPath>
</defs>
</svg>
