<svg aria-hidden="true" style="position: absolute; width: 0; height: 0; overflow: hidden;" version="1.1" xmlns="http://www.w3.org/2000/svg" xmlns:xlink="http://www.w3.org/1999/xlink">
<defs>
<symbol id="icon-right" viewBox="0 0 20 32">
<path stroke-linejoin="miter" stroke-linecap="round" stroke-miterlimit="4" stroke-width="5.0526" d="M3.12 4.136l11.858 11.839-11.858 11.839"></path>
</symbol>
<symbol id="icon-left" viewBox="0 0 20 32">
<path stroke-linejoin="miter" stroke-linecap="round" stroke-miterlimit="4" stroke-width="5.0526" d="M17.090 4.136l-11.858 11.839 11.858 11.839"></path>
</symbol>
<symbol id="icon-close" viewBox="0 0 32 32">
<path stroke-linejoin="round" stroke-linecap="round" stroke-miterlimit="4" stroke-width="2.2857" d="M24 8l-16 16"></path>
<path stroke-linejoin="round" stroke-linecap="round" stroke-miterlimit="4" stroke-width="2.2857" d="M8 8l16 16"></path>
</symbol>
<symbol id="icon-burger" viewBox="0 0 64 32">
<path stroke-linejoin="round" stroke-linecap="round" stroke-miterlimit="4" stroke-width="5.3333" d="M4 5.111h56M4 26.889h56"></path>
</symbol>
<symbol id="icon-message" viewBox="0 0 26 32">
<path d="M25.6 23.872v-15.744l-8.825 7.872 8.825 7.872zM12.8 19.54l-2.525-2.253-8.825 7.872h22.7l-8.825-7.872-2.525 2.253zM24.15 6.84h-22.7l11.35 10.1 11.35-10.1zM0 8.128v15.744l8.825-7.872-8.825-7.872z"></path>
</symbol>
<symbol id="icon-phone" viewBox="0 0 31 32">
<path d="M8.091 13.206c1.558 3.281 4.069 5.971 7.131 7.641l2.381-2.551c0.303-0.325 0.725-0.417 1.104-0.29 1.212 0.429 2.51 0.661 3.863 0.661 0.287 0 0.562 0.122 0.765 0.339s0.317 0.512 0.317 0.82v4.058c0 0.307-0.114 0.602-0.317 0.82s-0.478 0.34-0.765 0.34c-4.879 0-9.558-2.077-13.008-5.773s-5.388-8.71-5.388-13.937c0-0.308 0.114-0.602 0.317-0.82s0.478-0.34 0.765-0.34h3.787c0.287 0 0.562 0.122 0.765 0.34s0.317 0.512 0.317 0.82c0 1.449 0.216 2.841 0.617 4.139 0.119 0.406 0.032 0.858-0.271 1.183l-2.381 2.551z"></path>
</symbol>
<symbol id="icon-map-marker" viewBox="0 0 32 32">
<path d="M15.273 13.964c-0.758 0-1.484-0.306-2.020-0.852s-0.837-1.286-0.837-2.057c0-0.772 0.301-1.511 0.837-2.057s1.263-0.852 2.020-0.852c0.758 0 1.484 0.306 2.020 0.852s0.837 1.286 0.837 2.057c0 0.382-0.074 0.76-0.217 1.113s-0.354 0.674-0.619 0.944c-0.265 0.27-0.58 0.484-0.927 0.631s-0.718 0.221-1.093 0.221zM15.273 2.909c-2.122 0-4.157 0.858-5.657 2.386s-2.343 3.599-2.343 5.76c0 6.109 8 15.127 8 15.127s8-9.018 8-15.127c0-2.16-0.843-4.232-2.343-5.76s-3.535-2.386-5.657-2.386z"></path>
</symbol>
<symbol id="icon-control" viewBox="0 0 32 32">
<path d="M28.859 7.822c0.36 0.36 0.562 0.848 0.562 1.357s-0.202 0.997-0.562 1.357l-14.391 14.391c-0.19 0.19-0.416 0.341-0.664 0.444s-0.515 0.156-0.784 0.156c-0.269 0-0.535-0.053-0.784-0.156s-0.474-0.254-0.664-0.444l-7.15-7.149c-0.183-0.177-0.33-0.389-0.43-0.623s-0.154-0.486-0.156-0.741c-0.002-0.255 0.046-0.508 0.143-0.744s0.239-0.45 0.419-0.631c0.18-0.18 0.395-0.323 0.631-0.419s0.489-0.145 0.744-0.143c0.255 0.002 0.507 0.055 0.741 0.156s0.446 0.247 0.623 0.43l5.883 5.883 13.124-13.125c0.178-0.178 0.39-0.32 0.623-0.417s0.483-0.146 0.735-0.146c0.252 0 0.502 0.050 0.735 0.146s0.445 0.238 0.623 0.417z"></path>
</symbol>
<symbol id="icon-star" viewBox="0 0 32 32">
<path d="M16.073 22.653l5.312 3.213c0.973 0.589 2.163-0.282 1.907-1.382l-1.408-6.042 4.698-4.070c0.858-0.742 0.397-2.15-0.73-2.24l-6.182-0.525-2.419-5.709c-0.435-1.037-1.92-1.037-2.355 0l-2.419 5.696-6.182 0.525c-1.126 0.090-1.587 1.498-0.73 2.24l4.698 4.070-1.408 6.042c-0.256 1.101 0.934 1.971 1.907 1.382l5.312-3.2z"></path>
</symbol>
<symbol id="icon-buyers" viewBox="0 0 32 32">
<path d="M14.48 23.84c0 0-1.52 0-1.52-1.52s1.52-6.080 7.6-6.080c6.080 0 7.6 4.56 7.6 6.080s-1.52 1.52-1.52 1.52h-12.16zM20.56 14.72c1.209 0 2.369-0.48 3.224-1.336s1.336-2.015 1.336-3.224-0.48-2.369-1.336-3.224c-0.855-0.855-2.015-1.336-3.224-1.336s-2.369 0.48-3.224 1.336-1.336 2.015-1.336 3.224c0 1.209 0.48 2.369 1.336 3.224s2.015 1.336 3.224 1.336zM11.768 23.84c-0.225-0.474-0.338-0.995-0.328-1.52 0-2.060 1.034-4.18 2.943-5.654-0.953-0.294-1.946-0.438-2.943-0.426-6.080 0-7.6 4.56-7.6 6.080s1.52 1.52 1.52 1.52h6.408zM10.68 14.72c1.008 0 1.974-0.4 2.687-1.113s1.113-1.679 1.113-2.687-0.4-1.974-1.113-2.687c-0.713-0.713-1.679-1.113-2.687-1.113s-1.974 0.4-2.687 1.113c-0.713 0.713-1.113 1.679-1.113 2.687s0.4 1.974 1.113 2.687c0.713 0.713 1.679 1.113 2.687 1.113z"></path>
</symbol>
<symbol id="icon-delivery" viewBox="0 0 32 32">
<path d="M12.882 11.814l0.659 2.385c0.621 2.246 0.931 3.37 1.843 3.881 0.913 0.512 2.071 0.21 4.388-0.392l2.458-0.64c2.317-0.602 3.475-0.902 4.003-1.787 0.527-0.886 0.218-2.010-0.404-4.256l-0.658-2.383c-0.621-2.248-0.932-3.372-1.843-3.882-0.914-0.512-2.072-0.21-4.389 0.393l-2.458 0.637c-2.317 0.602-3.475 0.904-4.001 1.789-0.527 0.884-0.218 2.008 0.403 4.255z"></path>
<path d="M3.555 7.356c0.034-0.122 0.091-0.235 0.169-0.335s0.174-0.182 0.284-0.245c0.11-0.062 0.231-0.102 0.356-0.117s0.252-0.006 0.374 0.028l2.18 0.604c0.578 0.157 1.105 0.461 1.53 0.882s0.734 0.946 0.897 1.522l2.753 9.966 0.202 0.7c0.816 0.301 1.504 0.874 1.948 1.622l0.397-0.123 11.354-2.95c0.122-0.032 0.249-0.039 0.374-0.022s0.245 0.059 0.354 0.123c0.109 0.064 0.204 0.148 0.28 0.249s0.131 0.215 0.163 0.337c0.032 0.122 0.039 0.249 0.022 0.374s-0.059 0.245-0.123 0.354c-0.064 0.109-0.148 0.204-0.249 0.28s-0.215 0.132-0.337 0.163l-11.311 2.939-0.422 0.131c-0.008 1.626-1.13 3.113-2.829 3.553-2.035 0.53-4.128-0.643-4.673-2.616-0.545-1.975 0.663-4.005 2.698-4.534 0.1-0.026 0.201-0.048 0.303-0.067l-2.755-9.969c-0.074-0.256-0.213-0.489-0.404-0.675s-0.426-0.32-0.684-0.389l-2.181-0.605c-0.122-0.034-0.235-0.091-0.335-0.168s-0.183-0.174-0.245-0.284c-0.062-0.11-0.102-0.231-0.118-0.356s-0.006-0.252 0.028-0.374z"></path>
</symbol>
</defs>
</svg>
